<svg width="151" height="24" viewBox="0 0 151 24" fill="none" xmlns="http://www.w3.org/2000/svg">
<path d="M1.40783 10.8243C1.93974 8.14264 4.38655 6.28613 7.79081 6.28613C11.727 6.28613 14.8121 7.93636 14.8121 13.0933V22.6852H11.4078L10.9823 20.6225C9.81209 22.0664 8.21634 22.9947 5.87591 22.9947C3.00357 22.9947 0.769531 21.2413 0.769531 18.044C0.769531 14.8467 3.74825 12.7839 7.89719 12.7839H10.6631V12.0619C10.6631 10.2054 9.28017 9.68972 7.68442 9.68972C6.51421 9.68972 5.344 10.1023 4.81208 11.5462L1.40783 10.8243ZM6.83336 19.5911C8.74825 19.5911 10.6631 18.3534 10.6631 16.2906V15.9812H8.00357C6.19506 15.8781 5.13123 16.6 5.13123 18.044C5.13123 18.766 5.76953 19.5911 6.83336 19.5911Z" fill="black"/>
<path d="M81.6207 10.8243C82.1526 8.14264 84.5994 6.28613 88.0037 6.28613C91.9399 6.28613 95.025 7.93636 95.025 13.0933V22.6852H91.6207L91.1952 20.6225C90.025 22.0664 88.4292 22.9947 86.0888 22.9947C83.2165 22.9947 80.9824 21.2413 80.9824 18.044C80.9824 14.8467 83.9611 12.7839 88.1101 12.7839H90.876V12.0619C90.876 10.2054 89.4931 9.68972 87.8973 9.68972C86.7271 9.68972 85.5569 10.1023 85.025 11.5462L81.6207 10.8243ZM87.0462 19.5911C88.9611 19.5911 90.876 18.3534 90.876 16.2906V15.9812H88.1101C86.3016 15.9812 85.2377 16.6 85.2377 18.044C85.3441 18.766 85.9824 19.5911 87.0462 19.5911Z" fill="black"/>
<path d="M98.748 22.7884V6.49241H102.897V9.17403C104.067 7.21438 105.982 6.28613 107.791 6.28613C108.535 6.28613 109.174 6.38927 109.812 6.59555L109.067 10.3086C108.535 9.99914 108.003 9.79286 107.365 9.79286C104.918 9.79286 102.897 11.7525 102.897 16.9095V22.6852L98.748 22.7884Z" fill="black"/>
<path d="M118.642 6.28611C120.344 6.28611 121.94 7.11122 122.685 8.03947V-0.00537109H126.834V22.7884H122.685V21.1381C122.153 21.9632 120.663 23.0978 118.642 23.0978C113.642 23.0978 111.089 19.6942 111.089 14.7435C111.089 9.79284 113.642 6.28611 118.642 6.28611ZM119.28 19.591C121.408 19.591 123.11 17.8377 123.11 14.6404C123.11 11.4431 121.408 9.6897 119.28 9.6897C117.153 9.6897 115.451 11.4431 115.451 14.6404C115.451 17.8377 117.153 19.591 119.28 19.591Z" fill="black"/>
<path d="M141.727 8.86459L139.28 11.0305C138.535 9.99912 137.365 9.58656 136.514 9.58656C135.663 9.58656 134.918 10.1023 134.918 10.9274C134.918 11.6493 135.556 12.165 136.514 12.4745C138.854 13.2996 142.578 14.0215 142.578 17.4251C142.578 20.4162 140.237 22.7884 136.62 22.7884C133.11 22.7884 130.769 20.4162 130.024 18.4565L133.322 16.7032C133.961 18.2502 135.024 19.3848 136.727 19.3848C138.003 19.3848 138.854 18.7659 138.854 17.6314C138.854 16.2906 136.727 15.9812 134.705 15.1561C132.897 14.4341 131.301 13.2996 131.301 10.8242C131.301 8.34889 133.429 6.07983 136.62 6.07983C138.748 6.18297 140.769 7.3175 141.727 8.86459Z" fill="black"/>
<path d="M55.9826 6.49243L53.0039 17.7346L50.1315 6.49243H46.3017L43.5358 17.7346L41.1954 11.2368L40.8762 11.9588L39.5996 16.1875L41.7273 22.7884H45.3443L48.2166 12.2682L51.089 22.7884H54.8124L60.1315 6.49243H55.9826Z" fill="black"/>
<path d="M75.8761 6.49243L72.8974 17.7346L70.025 6.49243H66.1952L63.4293 17.7346L61.0888 11.2368L60.7697 11.9588L59.3867 16.1875L61.6208 22.7884H65.2378L68.1101 12.2682L70.9825 22.7884H74.5995L80.025 6.49243H75.8761Z" fill="black"/>
<path d="M40.2381 6.49243L34.919 22.6853H31.3019L28.4296 12.2682L25.5573 22.7884H21.9402L16.6211 6.59557H20.77L23.7488 17.7346L26.6211 6.59557H30.4509L33.3232 17.7346L36.3019 6.59557L40.2381 6.49243Z" fill="black"/>
<path d="M148.003 17.5283C149.599 17.5283 150.769 18.6628 150.769 20.2099C150.769 21.757 149.599 22.8916 148.003 22.8916C146.408 22.8916 145.237 21.757 145.237 20.2099C145.237 18.6628 146.408 17.5283 148.003 17.5283Z" fill="black"/>
</svg>
