<svg width="101" height="29" viewBox="0 0 101 29" fill="none" xmlns="http://www.w3.org/2000/svg">
<path d="M26.2603 0.204102H30.9063V28.8881H26.2603V0.204102Z" fill="black"/>
<path d="M47.0663 19.7981C47.0663 24.2421 43.4303 24.6461 42.2183 24.6461C39.3903 24.6461 38.9863 22.0201 38.9863 20.6061V9.49609H34.3403V20.4041C34.3403 23.0301 35.1483 25.4541 36.7643 26.8681C38.1783 28.2821 39.9963 28.8881 42.2183 28.8881C43.8343 28.8881 45.8543 28.4841 47.0663 27.2721V28.8881H51.7124V9.49609H47.0663V19.7981Z" fill="black"/>
<path d="M60.8022 2.42609H56.1562V9.4961H52.7222V13.9401H56.1562V28.8881H60.8022V13.9401H64.2362V9.4961H60.8022V2.42609Z" fill="black"/>
<path d="M78.78 23.0302C77.77 23.8382 76.356 24.4442 74.942 24.4442C71.71 24.4442 69.488 22.0202 69.488 18.7882C69.488 15.5562 71.71 13.3342 74.942 13.3342C76.356 13.3342 77.77 13.7382 78.78 14.7482L79.386 15.3542L82.618 12.3242L81.81 11.7182C79.992 10.1022 77.568 9.09216 74.942 9.09216C69.286 9.09216 65.0439 13.3342 65.0439 18.9902C65.0439 24.6462 69.286 28.8882 74.942 28.8882C77.568 28.8882 79.992 27.8782 81.81 26.2622L82.618 25.6562L79.386 22.4242L78.78 23.0302Z" fill="black"/>
<path d="M98.9803 11.1121C97.5663 9.69812 96.1523 9.09212 93.9303 9.09212C92.3143 9.09212 90.6983 9.49611 89.4863 10.7081V0.204102H84.8403V28.8881H89.4863V18.1821C89.4863 13.7381 92.5163 13.3341 93.7283 13.3341C96.5563 13.3341 96.3544 15.9601 96.3544 17.3741V28.6861H101V17.5761C101 14.9501 100.394 12.5261 98.9803 11.1121Z" fill="black"/>
<path d="M74.7398 22.2222C76.5248 22.2222 77.9718 20.7752 77.9718 18.9902C77.9718 17.2052 76.5248 15.7582 74.7398 15.7582C72.9548 15.7582 71.5078 17.2052 71.5078 18.9902C71.5078 20.7752 72.9548 22.2222 74.7398 22.2222Z" fill="black"/>
<path d="M19.796 21.8182C18.18 23.4342 15.756 24.4442 13.13 24.4442C8.08001 24.4442 4.44401 20.4042 4.44401 14.9502C4.44401 9.49615 8.08001 5.45614 13.332 5.45614C15.756 5.45614 18.18 6.46614 19.998 8.28414L20.604 8.89015L23.634 5.86014L23.028 5.25414C20.402 2.62814 16.968 1.21413 13.332 1.21413C5.65601 1.01213 0 7.07214 0 14.9502C0 22.8282 5.65601 28.8882 13.13 28.8882C16.766 28.8882 20.402 27.4742 22.826 24.8482L23.432 24.2422L20.402 21.2122L19.796 21.8182Z" fill="black"/>
</svg>
