<svg width="174" height="23" viewBox="0 0 174 23" fill="none" xmlns="http://www.w3.org/2000/svg">
<path d="M10.4735 0.705322C8.87723 0.705322 7.41629 0.997425 6.13107 1.56996C4.84614 2.14249 3.73426 2.94248 2.82689 3.94838C1.9219 4.95428 1.21636 6.15442 0.731953 7.51736C0.247249 8.87761 0 10.3651 0 11.9411C0 13.4405 0.232705 14.8448 0.688617 16.1137C1.14483 17.3857 1.80525 18.4999 2.65088 19.4241C3.49414 20.3489 4.52974 21.0819 5.7271 21.6038C6.92179 22.1234 8.26875 22.3871 9.73206 22.3871C11.7727 22.3871 13.6159 22.0037 15.2122 21.2489L15.3167 21.1986V18.9013L15.046 19.0527C13.5874 19.8671 11.8724 20.2792 9.94577 20.2792C8.69646 20.2792 7.58458 20.0541 6.64634 19.6088C5.70573 19.1605 4.90759 18.5502 4.27803 17.7885C3.64611 17.0239 3.15933 16.1191 2.83609 15.0986C2.51078 14.0708 2.34694 12.962 2.34694 11.8001C2.34694 10.5042 2.52978 9.29242 2.89308 8.20033C3.25431 7.11273 3.78383 6.15711 4.468 5.35951C5.14979 4.56431 6.00255 3.93671 6.99807 3.48898C7.99568 3.04095 9.15475 2.81588 10.4447 2.81588C12.0719 2.81588 13.6207 3.18221 15.0531 3.90319L15.3167 4.03487V1.56876L15.2006 1.52237C13.8181 0.980665 12.2265 0.705322 10.4735 0.705322Z" fill="black"/>
<path d="M29.7191 13.3355C29.289 12.8515 28.7429 12.3819 28.0967 11.9387C27.4576 11.5029 26.6999 11.0477 25.8424 10.5856C25.0323 10.1496 24.3363 9.75662 23.7756 9.41932C23.2271 9.08891 22.778 8.75102 22.4432 8.41821C22.1152 8.09229 21.8754 7.74512 21.7282 7.38089C21.5809 7.01696 21.507 6.57371 21.507 6.06373C21.507 5.5319 21.6166 5.06232 21.8326 4.66487C22.0511 4.26473 22.3553 3.92474 22.7329 3.65658C23.1179 3.38094 23.5738 3.17024 24.087 3.02898C24.607 2.88532 25.1677 2.81349 25.7569 2.81349C27.3413 2.81349 28.7405 3.15827 29.9138 3.83854L30.1872 3.99657V1.44306L30.0729 1.39518C28.9732 0.937568 27.593 0.705322 25.9706 0.705322C25.0442 0.705322 24.1606 0.834614 23.3435 1.08841C22.5239 1.3425 21.797 1.71122 21.1841 2.18798C20.5688 2.66684 20.0725 3.25374 19.7089 3.93641C19.3456 4.62147 19.1601 5.4047 19.1601 6.26455C19.1601 6.94483 19.2578 7.56046 19.4501 8.09438C19.6424 8.631 19.9464 9.13889 20.3551 9.59859C20.7567 10.0538 21.2815 10.5036 21.9134 10.9376C22.5382 11.3638 23.2983 11.8238 24.1725 12.3032C24.954 12.7417 25.6429 13.1391 26.2202 13.4863C26.7854 13.8293 27.2582 14.1762 27.6286 14.5185C27.9875 14.8564 28.2558 15.2207 28.4268 15.6011C28.5956 15.9844 28.6811 16.44 28.6811 16.9571C28.6811 18.0366 28.327 18.8417 27.5977 19.4116C26.8637 19.9862 25.7308 20.2783 24.2318 20.2783C23.8445 20.2783 23.4313 20.243 23.006 20.1726C22.5809 20.1035 22.1508 19.9973 21.7282 19.8638C21.3076 19.727 20.8897 19.5579 20.4857 19.3565C20.0844 19.1572 19.7137 18.927 19.3812 18.678L19.0889 18.4551V21.1672L19.1746 21.2234C19.443 21.3919 19.7944 21.5515 20.2197 21.6942C20.6353 21.8343 21.082 21.9588 21.543 22.0593C22.0012 22.1599 22.4622 22.2401 22.9134 22.2904C23.3648 22.3467 23.7614 22.3715 24.0894 22.3715C25.0893 22.3715 26.0205 22.2527 26.859 22.0186C27.7046 21.7846 28.4434 21.4294 29.0587 20.9693C29.6787 20.5016 30.1658 19.9084 30.5101 19.1994C30.8544 18.4937 31.0281 17.6637 31.0281 16.7395C31.0281 16.0685 30.9188 15.4487 30.7001 14.8977C30.484 14.3483 30.1539 13.8239 29.7191 13.3355Z" fill="black"/>
<path d="M46.2811 14.8995C46.0651 14.3483 45.7347 13.8239 45.3002 13.3352C44.8701 12.8512 44.3239 12.3811 43.6777 11.9384C43.0387 11.5029 42.2809 11.0474 41.4234 10.5853C40.6134 10.1493 39.9174 9.75632 39.3567 9.41902C38.8079 9.08861 38.3591 8.75072 38.024 8.41791C37.6963 8.09199 37.4564 7.74482 37.3092 7.38059C37.1617 7.01666 37.0881 6.57341 37.0881 6.06343C37.0881 5.5316 37.1973 5.06232 37.4137 4.66457C37.6322 4.26443 37.9361 3.92444 38.314 3.65628C38.6986 3.38064 39.1548 3.16994 39.668 3.02868C40.1881 2.88502 40.7487 2.81319 41.3379 2.81319C42.9223 2.81319 44.3212 3.15797 45.4949 3.83824L45.7679 3.99627V1.44306L45.654 1.39518C44.5542 0.937568 43.174 0.705322 41.5516 0.705322C40.6253 0.705322 39.7416 0.834614 38.9245 1.08841C38.105 1.3425 37.3781 1.71122 36.7652 2.18798C36.1499 2.66684 35.6533 3.25374 35.29 3.93641C34.9264 4.62147 34.7412 5.4047 34.7412 6.26455C34.7412 6.94483 34.8385 7.56046 35.0311 8.09438C35.2235 8.631 35.5274 9.13889 35.9361 9.59859C36.3374 10.0538 36.8625 10.5036 37.4944 10.9376C38.1192 11.3644 38.8794 11.8238 39.7535 12.3032C40.535 12.7417 41.224 13.1391 41.801 13.4863C42.3664 13.8293 42.8392 14.1762 43.2097 14.5191C43.5685 14.8564 43.8368 15.2207 44.0078 15.6011C44.1764 15.9844 44.2619 16.44 44.2619 16.9571C44.2619 18.0366 43.9081 18.8417 43.1788 19.4116C42.4448 19.9862 41.3118 20.2783 39.8129 20.2783C39.4255 20.2783 39.0124 20.243 38.587 20.1726C38.162 20.1035 37.7319 19.9973 37.3092 19.8638C36.8886 19.727 36.4704 19.5579 36.0667 19.3565C35.6652 19.1572 35.2947 18.927 34.9623 18.678L34.6699 18.4556V21.1672L34.7554 21.2234C35.024 21.3919 35.3755 21.5515 35.8008 21.6942C36.2163 21.8343 36.6631 21.9588 37.1237 22.0593C37.5823 22.1599 38.043 22.2401 38.4944 22.2904C38.9459 22.3467 39.3424 22.3715 39.6704 22.3715C40.6704 22.3715 41.6015 22.2527 42.44 22.0186C43.2856 21.7846 44.0244 21.4294 44.6397 20.9693C45.2598 20.5016 45.7466 19.9084 46.0912 19.1994C46.4355 18.4937 46.6088 17.6643 46.6088 16.7395C46.6088 16.0703 46.4996 15.4502 46.2811 14.8995Z" fill="black"/>
<path d="M89.156 1.05725H86.8945V22.0345H89.156V1.05725Z" fill="black"/>
<path d="M133.55 18.2228C133.532 18.1964 120.374 1.05755 120.374 1.05755H118.002V22.0348H120.263C120.263 22.0348 120.257 5.03865 120.244 4.72949C120.25 4.73906 133.57 22.0348 133.57 22.0348H135.815V1.05725H133.539C133.541 1.05725 133.541 18.0887 133.55 18.2228Z" fill="black"/>
<path d="M110.229 18.2228C110.212 18.1964 97.0546 1.05755 97.0546 1.05755H94.6821V22.0348H96.9427C96.9427 22.0348 96.9362 5.03865 96.9222 4.72949C96.9287 4.73906 110.25 22.0348 110.25 22.0348H112.494V1.05725H110.219C110.219 1.05725 110.22 18.0887 110.229 18.2228Z" fill="black"/>
<path d="M143.589 12.4639H152.291V10.3698H143.589V3.17949H154.077V1.05756H141.328V22.0345H154.532V19.9266H143.589V12.4639Z" fill="black"/>
<path d="M170.418 15.3808C170.189 14.9504 169.967 14.5596 169.757 14.2217C169.546 13.882 169.326 13.5752 169.108 13.3115C168.887 13.0434 168.654 12.8135 168.419 12.6241C168.289 12.5187 168.148 12.4254 168.001 12.3419C168.578 12.1787 169.108 11.9603 169.586 11.687C170.177 11.3467 170.685 10.9277 171.101 10.439C171.519 9.95026 171.845 9.38282 172.068 8.75043C172.293 8.12043 172.408 7.421 172.408 6.67608C172.408 5.75159 172.229 4.92526 171.883 4.22343C171.533 3.52161 171.065 2.93022 170.486 2.46543C169.91 2.00303 169.245 1.64868 168.509 1.41404C167.778 1.1791 167.008 1.05939 166.227 1.05939H159V22.0363H161.262V13.067H164.485C164.894 13.067 165.267 13.1149 165.597 13.2107C165.92 13.3044 166.229 13.4621 166.511 13.6803C166.801 13.9035 167.086 14.2097 167.359 14.5844C167.637 14.9702 167.928 15.4541 168.23 16.0288L171.307 21.934L171.361 22.0312H174L170.418 15.3808ZM161.263 3.17983H165.784C167.175 3.17983 168.249 3.51024 168.976 4.15939C169.696 4.80614 170.061 5.70909 170.061 6.84697C170.061 7.47906 169.955 8.05399 169.741 8.55709C169.53 9.05749 169.228 9.49116 168.844 9.84312C168.462 10.2005 167.991 10.4758 167.447 10.6694C166.899 10.8616 166.285 10.9598 165.625 10.9598H161.262L161.263 3.17983Z" fill="black"/>
<path d="M49.8838 1.05756L63.8621 22.0309L65.0758 20.2352L52.3091 1.05756H49.8838Z" fill="black"/>
<path d="M80.7904 1.05756L69.2489 18.426L60.9042 5.75993H58.4492L69.2765 22.0333L83.2204 1.05756H80.7904Z" fill="black"/>
<path d="M77.7868 1.05756H75.3603L68.0352 12.1123L69.2393 13.9244L77.7868 1.05756Z" fill="black"/>
</svg>
