<svg width="210" height="31" viewBox="0 0 210 31" fill="none" xmlns="http://www.w3.org/2000/svg">
<path d="M20.885 20.6788L10.5003 10.4135L20.885 0.148193H10.5003L0.115723 10.4135L5.30803 15.6038L10.5003 20.6788L15.6926 25.7538L20.885 20.6788Z" fill="#282828"/>
<path d="M28.2698 15.6038L23.0775 10.4135L17.8852 5.3385L12.8083 10.4135L23.0775 20.6788L12.6929 30.9441H23.0775L28.2698 25.8691L33.4621 20.6788L28.2698 15.6038Z" fill="#282828"/>
<path d="M46.385 10.4136C44.885 10.4136 43.6158 10.8749 42.6927 11.913C41.7696 12.951 41.3081 14.3351 41.3081 16.1806C41.3081 18.026 41.7696 19.4101 42.5773 20.4482C43.5004 21.4863 44.6542 21.9476 46.2696 21.9476C47.3081 21.9476 48.3465 21.7169 49.6158 21.3709V22.8703C48.5773 23.2164 47.4235 23.447 46.0388 23.447C43.9619 23.447 42.3465 22.8703 41.1927 21.6016C40.0388 20.3328 39.4619 18.4874 39.4619 16.1806C39.4619 14.6812 39.6927 13.4124 40.2696 12.3743C40.8465 11.3363 41.6542 10.4136 42.5773 9.83685C43.5004 9.26015 44.7696 8.91412 46.2696 8.91412C47.7696 8.91412 49.0388 9.1448 50.1927 9.72151L49.5004 11.1056C48.5773 10.7596 47.5388 10.4136 46.385 10.4136Z" fill="#282828"/>
<path d="M60.8081 19.5254C60.8081 20.7942 60.3466 21.7169 59.4235 22.409C58.5004 23.101 57.3466 23.447 55.7312 23.447C54.0004 23.447 52.7312 23.2163 51.8081 22.755V21.1402C52.385 21.3709 53.0773 21.6016 53.6543 21.7169C54.2312 21.8323 55.0389 21.9476 55.7312 21.9476C56.885 21.9476 57.6927 21.7169 58.1543 21.3709C58.7312 20.9095 58.962 20.3328 58.962 19.6408C58.962 19.1794 58.8466 18.7181 58.6158 18.4874C58.385 18.1414 58.0389 17.9107 57.5773 17.5647C57.1158 17.334 56.4235 16.988 55.5004 16.6419C54.2312 16.1806 53.1927 15.6039 52.7312 14.9118C52.1543 14.2198 51.9235 13.4124 51.9235 12.3743C51.9235 11.3363 52.385 10.4135 53.1927 9.72149C54.0004 9.02945 55.1543 8.79877 56.4235 8.79877C57.8081 8.79877 59.0773 9.02945 60.3466 9.60615L59.885 10.9902C58.7312 10.5289 57.5773 10.2982 56.4235 10.2982C55.5004 10.2982 54.9235 10.5289 54.3466 10.8749C53.885 11.2209 53.6543 11.7976 53.6543 12.4897C53.6543 12.951 53.7696 13.4124 53.885 13.6431C54.1158 13.9891 54.3466 14.2198 54.8081 14.4505C55.2696 14.6811 55.8466 15.0272 56.7696 15.3732C58.2696 15.9499 59.3081 16.5266 59.885 17.1033C60.5773 17.7953 60.8081 18.6027 60.8081 19.5254Z" fill="#282828"/>
<path d="M71.7695 19.5254C71.7695 20.7942 71.308 21.7169 70.3849 22.409C69.4618 23.101 68.308 23.447 66.6926 23.447C64.9618 23.447 63.6926 23.2163 62.7695 22.755V21.1402C63.3465 21.3709 64.0388 21.6016 64.6157 21.7169C65.1926 21.8323 66.0003 21.9476 66.6926 21.9476C67.8465 21.9476 68.6541 21.7169 69.1157 21.3709C69.6926 20.9095 69.9234 20.3328 69.9234 19.6408C69.9234 19.1794 69.808 18.7181 69.5772 18.4874C69.3465 18.1414 69.0003 17.9107 68.5388 17.5647C68.0772 17.334 67.3849 16.988 66.4618 16.6419C65.1926 16.1806 64.1541 15.6039 63.6926 14.9118C63.1157 14.2198 62.8849 13.4124 62.8849 12.3743C62.8849 11.3363 63.3465 10.4135 64.1541 9.72149C64.9618 9.02945 66.1157 8.79877 67.3849 8.79877C68.7695 8.79877 70.0388 9.02945 71.308 9.60615L70.8465 10.9902C69.6926 10.5289 68.5388 10.2982 67.3849 10.2982C66.4618 10.2982 65.8849 10.5289 65.308 10.8749C64.8465 11.2209 64.6157 11.7976 64.6157 12.4897C64.6157 12.951 64.7311 13.4124 64.8465 13.6431C65.0772 13.9891 65.308 14.2198 65.7695 14.4505C66.2311 14.6811 66.808 15.0272 67.7311 15.3732C69.2311 15.9499 70.2695 16.5266 70.8465 17.1033C71.4234 17.7953 71.7695 18.6027 71.7695 19.5254Z" fill="#282828"/>
<path d="M86.1925 15.9499C86.1925 18.2567 85.5002 20.1021 84.231 21.3709C82.9618 22.6396 81.1156 23.3317 78.6925 23.3317H74.0771V9.14478H78.9233C81.231 9.14478 82.9618 9.72148 84.231 10.8749C85.5002 12.0283 86.1925 13.7584 86.1925 15.9499ZM82.2695 16.0652C82.2695 14.7965 82.0387 13.7584 81.4618 13.1817C81.0002 12.605 80.1925 12.259 79.1541 12.259H78.0002V20.2175H78.8079C79.9618 20.2175 80.7695 19.8715 81.3464 19.1794C82.0387 18.4874 82.2695 17.4493 82.2695 16.0652Z" fill="#282828"/>
<path d="M93.8083 23.5623C91.9621 23.5623 90.5775 23.101 89.5391 22.0629C88.5006 21.1402 88.0391 19.7561 88.0391 17.9106C88.0391 16.0652 88.5006 14.6811 89.4237 13.643C90.3468 12.605 91.7314 12.1436 93.4621 12.1436C95.0775 12.1436 96.3468 12.605 97.2698 13.4124C98.1929 14.2197 98.6544 15.4885 98.6544 17.1033V18.8334H91.8468C91.8468 19.4101 92.0775 19.8714 92.5391 20.3328C93.0006 20.6788 93.5775 20.9095 94.2698 20.9095C94.9621 20.9095 95.5391 20.7942 96.116 20.6788C96.6929 20.5635 97.2698 20.3328 97.9621 19.9868V22.755C97.3852 23.101 96.8083 23.2163 96.116 23.3317C95.4237 23.447 94.7314 23.5623 93.8083 23.5623ZM93.5775 14.7965C93.116 14.7965 92.7698 14.9118 92.4237 15.2578C92.0775 15.4885 91.9621 15.9499 91.8468 16.5266H95.0775C95.0775 15.9499 94.9621 15.6038 94.616 15.2578C94.5006 14.9118 94.1544 14.7965 93.5775 14.7965Z" fill="#282828"/>
<path d="M109.269 19.9868C109.269 21.1402 108.923 22.0629 108.116 22.6396C107.308 23.2164 106.154 23.5624 104.654 23.5624C103.846 23.5624 103.154 23.5624 102.577 23.447C102 23.3317 101.308 23.2163 100.731 22.9857V19.9868C101.308 20.2175 102 20.4482 102.692 20.6789C103.385 20.7942 103.962 20.9095 104.539 20.9095C105.346 20.9095 105.808 20.6789 105.808 20.3328C105.808 20.1022 105.692 19.9868 105.462 19.8715C105.231 19.7561 104.539 19.4101 103.5 18.9487C102.462 18.4874 101.769 18.026 101.423 17.5647C101.077 16.988 100.846 16.4113 100.846 15.6039C100.846 14.5658 101.192 13.7584 102 13.1817C102.808 12.605 103.846 12.3743 105.346 12.3743C106.039 12.3743 106.731 12.4897 107.423 12.605C108.116 12.7204 108.692 12.951 109.385 13.2971L108.346 15.7192C107.885 15.4885 107.308 15.2578 106.731 15.1425C106.154 15.0272 105.692 14.9118 105.346 14.9118C104.769 14.9118 104.423 15.0272 104.423 15.3732C104.423 15.6039 104.539 15.7192 104.769 15.8345C105 15.9499 105.577 16.1806 106.616 16.6419C107.423 16.988 108 17.2186 108.346 17.5647C108.692 17.9107 109.039 18.2567 109.154 18.6027C109.154 18.8334 109.269 19.4101 109.269 19.9868Z" fill="#282828"/>
<path d="M111.347 9.60615C111.347 9.02944 111.462 8.56808 111.808 8.3374C112.154 8.10672 112.616 7.87604 113.308 7.87604C114.001 7.87604 114.577 7.99138 114.808 8.3374C115.154 8.56808 115.27 9.02944 115.27 9.60615C115.27 10.7596 114.577 11.2209 113.193 11.2209C111.924 11.3363 111.347 10.7596 111.347 9.60615ZM115.154 23.3317H111.347V12.3743H115.154V23.3317Z" fill="#282828"/>
<path d="M128.193 12.3743V14.2197L126.693 14.7965C126.923 15.1425 127.039 15.6038 127.039 16.0652C127.039 17.2186 126.577 18.1413 125.77 18.8334C124.962 19.5254 123.693 19.7561 122.077 19.7561C121.616 19.7561 121.385 19.7561 121.154 19.6408C121.039 19.7561 121.039 19.9868 121.039 20.1021C121.039 20.3328 121.154 20.4481 121.5 20.5635C121.846 20.6788 122.193 20.6788 122.654 20.6788H124.5C126.923 20.6788 128.193 21.7169 128.193 23.793C128.193 25.1771 127.616 26.2152 126.462 26.9072C125.308 27.5993 123.693 28.0606 121.616 28.0606C120.116 28.0606 118.846 27.8299 118.039 27.2532C117.231 26.7919 116.77 25.9845 116.77 25.0618C116.77 23.793 117.577 22.8703 119.193 22.5243C118.846 22.4089 118.616 22.1783 118.27 21.8322C118.039 21.4862 117.923 21.2555 117.923 20.9095C117.923 20.5635 118.039 20.2175 118.154 19.9868C118.385 19.7561 118.731 19.4101 119.308 19.0641C118.731 18.8334 118.27 18.372 117.923 17.9106C117.577 17.3339 117.462 16.7572 117.462 15.9499C117.462 14.7965 117.923 13.8737 118.731 13.1817C119.539 12.4896 120.693 12.1436 122.193 12.1436C122.423 12.1436 122.77 12.1436 123.231 12.259C123.693 12.259 124.039 12.3743 124.27 12.3743H128.193ZM119.885 24.7157C119.885 25.0618 120 25.2925 120.346 25.5231C120.693 25.7538 121.154 25.7538 121.731 25.7538C122.654 25.7538 123.346 25.6385 123.923 25.4078C124.5 25.1771 124.731 24.8311 124.731 24.4851C124.731 24.139 124.616 24.0237 124.27 23.9084C123.923 23.793 123.462 23.6777 122.77 23.6777H121.27C120.808 23.6777 120.577 23.793 120.231 23.9084C120 24.139 119.885 24.3697 119.885 24.7157ZM121.039 15.9499C121.039 17.1033 121.385 17.68 122.193 17.68C122.539 17.68 122.885 17.5646 123 17.2186C123.231 16.9879 123.346 16.5266 123.346 15.9499C123.346 14.7965 123 14.2197 122.193 14.2197C121.5 14.2197 121.039 14.7965 121.039 15.9499Z" fill="#282828"/>
<path d="M136.731 23.3317V17.334C136.731 16.6419 136.616 16.0652 136.385 15.7192C136.154 15.3732 135.808 15.1425 135.347 15.1425C134.654 15.1425 134.193 15.3732 133.962 15.9499C133.731 16.4113 133.501 17.334 133.501 18.6027V23.447H129.693V12.4897H132.577L133.039 13.8738H133.27C133.616 13.4124 134.077 12.951 134.654 12.7204C135.231 12.4897 135.924 12.3743 136.616 12.3743C137.885 12.3743 138.808 12.7204 139.501 13.4124C140.193 14.1044 140.539 15.1425 140.539 16.4113V23.5624H136.731V23.3317Z" fill="#282828"/>
<path d="M152.654 23.3317L150.923 18.8334H145.269L143.539 23.3317H141.923L147.577 9.14478H148.962L154.5 23.3317H152.654ZM150.346 17.334L148.731 12.951C148.5 12.3743 148.269 11.6823 148.039 10.8749C147.923 11.4516 147.693 12.1436 147.462 12.951L145.846 17.334H150.346Z" fill="#282828"/>
<path d="M164.77 23.3317L162.808 17.1033C162.693 16.7573 162.462 15.8346 162.116 14.5658H162C161.77 15.7192 161.539 16.5266 161.308 17.2186L159.346 23.447H157.5L154.616 12.8357H156.346C157.039 15.4885 157.5 17.5647 157.962 18.9487C158.308 20.3328 158.539 21.2556 158.539 21.7169H158.654C158.77 21.3709 158.885 20.9095 159 20.3328C159.116 19.7561 159.346 19.2948 159.462 18.9487L161.423 12.8357H163.154L165 18.9487C165.346 20.1022 165.577 21.0249 165.693 21.7169H165.808C165.808 21.4862 165.923 21.1402 166.039 20.6789C166.154 20.2175 166.846 17.5647 168 12.8357H169.616L166.731 23.447H164.77V23.3317Z" fill="#282828"/>
<path d="M178.039 23.3317L177.693 21.8323H177.577C177 22.5243 176.539 22.9857 175.962 23.2164C175.385 23.447 174.808 23.5624 174 23.5624C172.962 23.5624 172.154 23.3317 171.577 22.755C171 22.1783 170.654 21.4863 170.654 20.4482C170.654 18.2567 172.385 17.2187 175.847 17.1033L177.693 16.988V16.2959C177.693 15.4885 177.462 14.7965 177.116 14.4505C176.77 14.1045 176.193 13.8738 175.385 13.8738C174.462 13.8738 173.539 14.1045 172.385 14.6812L171.924 13.4124C172.5 13.1817 172.962 12.951 173.654 12.7204C174.231 12.605 174.924 12.4897 175.5 12.4897C176.77 12.4897 177.693 12.7204 178.27 13.2971C178.847 13.8738 179.193 14.7965 179.193 15.9499V23.2164H178.039V23.3317ZM174.347 22.1783C175.385 22.1783 176.077 21.9476 176.654 21.3709C177.231 20.7942 177.462 20.1022 177.462 19.0641V18.1414L175.847 18.2567C174.577 18.2567 173.654 18.4874 173.077 18.8334C172.5 19.1794 172.27 19.7561 172.27 20.4482C172.27 21.0249 172.5 21.4863 172.847 21.7169C173.308 22.063 173.77 22.1783 174.347 22.1783Z" fill="#282828"/>
<path d="M187.385 12.4897C187.847 12.4897 188.308 12.4897 188.654 12.605L188.424 14.1045C187.962 13.9891 187.616 13.9891 187.27 13.9891C186.462 13.9891 185.654 14.3351 185.078 15.0272C184.501 15.7192 184.154 16.6419 184.154 17.68V23.3317H182.539V12.7204H183.808L184.039 14.6812H184.154C184.501 13.9891 185.078 13.4124 185.539 13.0664C186.116 12.7204 186.693 12.4897 187.385 12.4897Z" fill="#282828"/>
<path d="M197.885 21.9476C197.078 22.9857 195.924 23.5624 194.424 23.5624C193.039 23.5624 192.001 23.101 191.193 22.1783C190.385 21.2555 190.039 19.8715 190.039 18.1413C190.039 16.4112 190.385 15.0271 191.193 14.1044C192.001 13.1817 193.039 12.605 194.424 12.605C195.808 12.605 196.962 13.1817 197.77 14.2198H197.885L197.77 13.4124V12.7203V8.22205H199.385V23.3317H198.116L197.885 21.9476ZM194.654 22.1783C195.808 22.1783 196.501 21.8322 197.078 21.2555C197.539 20.6788 197.77 19.6408 197.77 18.372V18.026C197.77 16.5266 197.539 15.4885 196.962 14.7965C196.501 14.1044 195.693 13.8737 194.539 13.8737C193.616 13.8737 192.924 14.2198 192.347 15.0271C191.885 15.7192 191.539 16.7573 191.539 18.1413C191.539 19.5254 191.77 20.5635 192.231 21.2555C192.924 21.8322 193.616 22.1783 194.654 22.1783Z" fill="#282828"/>
<path d="M209.654 20.4482C209.654 21.4863 209.308 22.1783 208.501 22.755C207.808 23.3317 206.77 23.5624 205.385 23.5624C204.001 23.5624 202.847 23.3317 202.039 22.8703V21.3709C202.501 21.6016 203.078 21.8323 203.654 21.9476C204.231 22.063 204.808 22.1783 205.385 22.1783C206.193 22.1783 206.885 22.063 207.347 21.8323C207.808 21.6016 208.039 21.1402 208.039 20.5635C208.039 20.1022 207.808 19.7561 207.462 19.5255C207.116 19.1794 206.424 18.8334 205.385 18.4874C204.347 18.1414 203.654 17.7954 203.308 17.5647C202.847 17.334 202.616 16.988 202.385 16.6419C202.154 16.2959 202.039 15.8346 202.039 15.3732C202.039 14.5658 202.385 13.8738 203.078 13.2971C203.77 12.7204 204.693 12.4897 205.962 12.4897C207.116 12.4897 208.27 12.7204 209.308 13.1817L208.731 14.4505C207.693 13.9891 206.654 13.7584 205.847 13.7584C205.039 13.7584 204.462 13.8738 204.116 14.1045C203.77 14.3351 203.539 14.6812 203.539 15.1425C203.539 15.3732 203.654 15.7192 203.77 15.8346C203.885 16.0652 204.116 16.1806 204.462 16.4113C204.808 16.6419 205.385 16.8726 206.308 17.2187C207.578 17.68 208.385 18.1414 208.847 18.6027C209.424 19.1794 209.654 19.7561 209.654 20.4482Z" fill="#282828"/>
</svg>
