<svg width="180" height="60" viewBox="0 0 180 60" fill="none" xmlns="http://www.w3.org/2000/svg">
<path d="M52.809 15.5603L52.7422 15.4341C51.5018 13.3841 47.3424 10.1903 41.6011 6.89258C35.8597 3.59482 30.9428 1.57457 28.566 1.56714H28.5066C26.1298 1.56714 21.2649 3.59482 15.4938 6.92972C9.72269 10.2646 5.51879 13.5178 4.35269 15.5678C3.11231 17.6623 2.44385 22.7649 2.44385 29.5461C2.44385 36.2308 3.11974 41.2517 4.27841 43.4131L4.33041 43.5022V43.5468C5.51136 45.5819 9.68556 48.8054 15.4715 52.1551C21.2574 55.5049 26.1521 57.5028 28.5214 57.5103C30.8908 57.5177 35.7929 55.4974 41.5936 52.1403C47.3944 48.7831 51.5241 45.6116 52.7347 43.5245C52.7311 43.5048 52.7311 43.4847 52.7347 43.4651C54.0048 41.43 54.6956 36.2308 54.6956 29.5461C54.6956 22.8615 53.9825 17.6177 52.809 15.5603Z" fill="black"/>
<path d="M30.401 23.9756H27.274C26.4322 23.9776 25.6256 24.3134 25.031 24.9094C24.4364 25.5053 24.1025 26.3128 24.1025 27.1546V35.0647H26.0931V31.7076H31.6042V35.0647H33.565V27.1546C33.5611 26.3101 33.2229 25.5016 32.6244 24.9058C32.0258 24.3101 31.2157 23.9756 30.3713 23.9756H30.401ZM26.0931 27.1546C26.0931 26.8407 26.2173 26.5395 26.4385 26.3169C26.6598 26.0942 26.9601 25.9682 27.274 25.9662H30.401C30.5584 25.9642 30.7145 25.9941 30.86 26.0541C31.0056 26.1141 31.1374 26.203 31.2477 26.3153C31.3622 26.4227 31.4531 26.5528 31.5145 26.6973C31.5758 26.8418 31.6064 26.9976 31.6042 27.1546V29.7245H26.0931V27.1546Z" fill="white"/>
<path d="M14.7741 24.0129H8.68359V35.154H14.7741C15.9284 35.154 17.0355 34.6954 17.8517 33.8792C18.6679 33.0629 19.1265 31.9559 19.1265 30.8015V28.3579C19.1226 27.2055 18.6625 26.1014 17.8469 25.2872C17.0313 24.473 15.9265 24.0148 14.7741 24.0129ZM10.7113 26.0406H14.7741C15.3887 26.0406 15.9781 26.2847 16.4127 26.7193C16.8473 27.1539 17.0914 27.7433 17.0914 28.3579V30.8312C17.0914 31.4465 16.8475 32.0367 16.4131 32.4725C15.9787 32.9082 15.3893 33.154 14.7741 33.156H10.7113V26.0406Z" fill="white"/>
<path d="M48.4126 24.05H46.6746H46.5261V24.1985V31.1729L40.6807 24.102L40.6361 24.05H40.5693H39.2101H39.0615V24.1985V34.9311V35.0797H39.2101H40.9555H41.1041V34.9311V27.8454L46.9717 35.0202L47.0163 35.0722H47.0831H48.4126H48.5686V34.9237V24.1985V24.05H48.4126Z" fill="white"/>
<path d="M67.1289 17.7589H70.9392C71.5629 17.756 72.1828 17.8564 72.7737 18.056C73.3523 18.2411 73.8861 18.5446 74.3409 18.9473C74.8105 19.3554 75.1834 19.8628 75.4327 20.4328C75.7202 21.1058 75.8595 21.8328 75.8412 22.5644C75.8601 23.3072 75.6996 24.0435 75.3733 24.711C75.0793 25.2861 74.6667 25.7924 74.1627 26.1964C73.671 26.5883 73.1123 26.8878 72.5138 27.0803C71.9393 27.2739 71.3374 27.3742 70.7312 27.3774H67.1289V17.7589ZM70.0999 25.8622C70.6007 25.8597 71.0994 25.7974 71.5853 25.6765C72.068 25.5722 72.525 25.3728 72.9297 25.0897C73.2876 24.8265 73.5757 24.4797 73.769 24.0796C73.98 23.6134 74.0841 23.1058 74.0735 22.5941C74.0847 22.0854 73.9911 21.5798 73.7987 21.1087C73.6397 20.713 73.3844 20.3632 73.056 20.0911C72.7164 19.8265 72.3276 19.6321 71.9121 19.5192C71.4397 19.3934 70.9527 19.331 70.4638 19.3335H68.8521V25.8325L70.0999 25.8622Z" fill="black"/>
<path d="M77.4395 17.7589H79.1552V27.4145H77.4395V17.7589Z" fill="black"/>
<path d="M89.8502 26.7089C88.6174 27.3516 87.2444 27.6783 85.8542 27.6596C85.154 27.6691 84.4584 27.5456 83.8043 27.2957C83.201 27.074 82.6515 26.727 82.1919 26.2777C81.7323 25.8284 81.3731 25.2868 81.1378 24.6887C80.8725 24.0357 80.7412 23.336 80.7516 22.6313C80.7406 21.9096 80.8719 21.1929 81.1378 20.5219C81.3727 19.9146 81.732 19.3631 82.1925 18.9027C82.6522 18.4522 83.2013 18.103 83.8043 17.8778C84.4584 17.6278 85.154 17.5043 85.8542 17.5138C86.5539 17.5091 87.2509 17.5991 87.9265 17.7812C88.571 17.9554 89.1644 18.2814 89.6571 18.7319L88.387 20.0094C88.0639 19.7036 87.6825 19.4661 87.2654 19.3112C86.8184 19.1465 86.3455 19.0635 85.8691 19.0661C85.4024 19.06 84.9395 19.1511 84.5099 19.3335C84.1161 19.5074 83.7623 19.7602 83.47 20.0763C83.1768 20.3963 82.9474 20.7694 82.7941 21.1755C82.6306 21.6072 82.55 22.0658 82.5565 22.5273C82.5489 23.0155 82.6294 23.5011 82.7941 23.9608C82.9435 24.3777 83.1731 24.7612 83.47 25.0898C83.761 25.4073 84.1152 25.6603 84.5099 25.8325C84.9389 26.0175 85.4019 26.1111 85.8691 26.1073C86.2833 26.1083 86.6966 26.066 87.102 25.981C87.4634 25.908 87.8116 25.7803 88.1344 25.6022V23.322H86.1513V21.7697H89.865L89.8502 26.7089Z" fill="black"/>
<path d="M91.8398 17.7589H93.5556V27.4145H91.8398V17.7589Z" fill="black"/>
<path d="M97.6482 19.3112H94.6772V17.7589H102.313V19.3112H99.3416V27.4145H97.6259L97.6482 19.3112Z" fill="black"/>
<path d="M105.366 17.7589H106.851L111.01 27.4145H109.05L108.151 25.1862H103.962L103.085 27.4145H101.154L105.366 17.7589ZM107.549 23.7008L106.064 19.7791L104.578 23.7008H107.549Z" fill="black"/>
<path d="M112.088 17.7589H113.781V25.8324H117.889V27.3848H112.065L112.088 17.7589Z" fill="black"/>
<path d="M126.326 17.7589H127.812L131.971 27.4145H130.003L129.104 25.1862H124.923L124.046 27.4145H122.123L126.326 17.7589ZM128.51 23.7008L127.025 19.7791L125.539 23.7008H128.51Z" fill="black"/>
<path d="M141.625 26.7089C140.392 27.3507 139.019 27.6774 137.629 27.6596C136.926 27.6692 136.228 27.5457 135.572 27.2957C134.973 27.0704 134.426 26.724 133.967 26.2781C133.511 25.8247 133.149 25.2842 132.905 24.6887C132.646 24.0341 132.517 23.3352 132.526 22.6313C132.517 21.9104 132.645 21.1944 132.905 20.5219C133.145 19.9156 133.507 19.3647 133.967 18.9027C134.424 18.4522 134.971 18.103 135.572 17.8778C136.228 17.6278 136.926 17.5043 137.629 17.5138C138.329 17.5091 139.026 17.5991 139.701 17.7812C140.345 17.957 140.938 18.2828 141.432 18.7319L140.162 20.0094C139.837 19.7052 139.456 19.4679 139.04 19.3112C138.591 19.1466 138.115 19.0636 137.636 19.0661C137.172 19.0593 136.711 19.1504 136.285 19.3335C135.889 19.5073 135.532 19.76 135.237 20.0763C134.947 20.3982 134.718 20.7708 134.561 21.1755C134.402 21.6081 134.321 22.0661 134.324 22.5273C134.32 23.0153 134.4 23.5002 134.561 23.9608C134.714 24.3763 134.943 24.7594 135.237 25.0898C135.531 25.4074 135.888 25.6604 136.285 25.8325C136.711 26.0182 137.172 26.1118 137.636 26.1073C138.053 26.1084 138.469 26.0661 138.877 25.981C139.236 25.9094 139.582 25.7815 139.902 25.6023V23.322H137.926V21.7697H141.64L141.625 26.7089Z" fill="black"/>
<path d="M143.653 17.7589H150.048V19.3112H145.369V21.6879H149.825V23.2403H145.369V25.8324H150.293V27.3848H143.653V17.7589Z" fill="black"/>
<path d="M151.988 17.7589H154.261L158.94 24.9337V17.7589H160.656V27.4145H158.472L153.704 19.9871V27.4145H151.988V17.7589Z" fill="black"/>
<path d="M169.486 20.0242C169.242 19.7217 168.933 19.4783 168.582 19.3123C168.231 19.1463 167.846 19.0622 167.458 19.0661C166.991 19.0591 166.528 19.1502 166.099 19.3335C165.705 19.5074 165.351 19.7602 165.059 20.0762C164.766 20.3963 164.536 20.7694 164.383 21.1755C164.22 21.6071 164.139 22.0657 164.145 22.5273C164.138 23.0155 164.218 23.5011 164.383 23.9607C164.524 24.3753 164.743 24.7587 165.029 25.0897C165.32 25.4072 165.674 25.6602 166.069 25.8324C166.498 26.0181 166.961 26.1117 167.428 26.1073C167.824 26.1055 168.214 26.0087 168.565 25.825C168.971 25.6085 169.324 25.304 169.597 24.9337L171.016 25.9439C170.608 26.5131 170.057 26.9642 169.419 27.2511C168.786 27.5264 168.103 27.6656 167.413 27.6596C166.713 27.6685 166.018 27.5451 165.363 27.2956C164.762 27.0702 164.214 26.7239 163.752 26.2781C163.297 25.8242 162.939 25.2837 162.697 24.6886C162.435 24.0346 162.304 23.3357 162.311 22.6312C162.304 21.9099 162.435 21.1938 162.697 20.5219C162.935 19.9159 163.294 19.3649 163.752 18.9027C164.211 18.4521 164.761 18.103 165.363 17.8777C166.018 17.6283 166.713 17.5048 167.413 17.5138C168.037 17.509 168.656 17.6277 169.233 17.8628C169.838 18.1291 170.373 18.5336 170.793 19.0438L169.486 20.0242Z" fill="black"/>
<path d="M174.537 23.2848L170.912 17.7589H173.066L175.428 21.6062L177.834 17.7589H179.884L176.26 23.2848V27.4145H174.537V23.2848Z" fill="black"/>
<path d="M67.1289 31.8636H69.4091L74.0884 39.031V31.8636H75.8115V41.5192H73.6724L68.8966 34.0918V41.5192H67.1289V31.8636Z" fill="black"/>
<path d="M77.9868 31.8636H84.3818V33.4159H79.7025V35.7853H84.159V37.345H79.7025V39.9446H84.6269V41.4969H77.9868V31.8636Z" fill="black"/>
<path d="M88.2976 33.4159H85.3267V31.8636H92.9843V33.4159H90.0133V41.5118H88.2976V33.4159Z" fill="black"/>
<path d="M93.0659 31.8636H94.945L96.7648 38.8156L98.9261 31.8636H100.62L102.744 38.8156L104.638 31.8636H106.383L103.576 41.5192H101.942L99.7134 34.1735L97.4852 41.5192H95.9552L93.0659 31.8636Z" fill="black"/>
<path d="M106.999 36.7286C106.988 36.007 107.119 35.2902 107.385 34.6193C107.62 34.0141 107.979 33.465 108.44 33.0075C108.905 32.5553 109.459 32.2038 110.066 31.9751C110.722 31.7311 111.417 31.6102 112.116 31.6186C112.822 31.5953 113.526 31.7088 114.188 31.9528C114.794 32.1697 115.346 32.5142 115.808 32.9629C116.273 33.4197 116.637 33.9687 116.877 34.5747C117.138 35.2444 117.266 35.9581 117.256 36.6766C117.265 37.3806 117.136 38.0795 116.877 38.734C116.633 39.3336 116.269 39.877 115.808 40.3309C115.342 40.7814 114.792 41.1349 114.188 41.3708C113.528 41.629 112.825 41.76 112.116 41.757C111.419 41.7748 110.724 41.6641 110.066 41.4302C109.466 41.1994 108.918 40.8509 108.454 40.4052C107.996 39.9546 107.637 39.4133 107.4 38.8157C107.124 38.1551 106.987 37.4445 106.999 36.7286ZM108.804 36.6172C108.796 37.1054 108.877 37.591 109.041 38.0507C109.187 38.4692 109.417 38.8534 109.717 39.1797C110.008 39.4972 110.362 39.7502 110.757 39.9224C111.185 40.1122 111.648 40.206 112.116 40.1972C112.584 40.2046 113.047 40.1109 113.475 39.9224C113.871 39.758 114.228 39.5126 114.523 39.202C114.82 38.8738 115.05 38.4901 115.199 38.073C115.36 37.6124 115.44 37.1275 115.436 36.6395C115.439 36.1807 115.359 35.7252 115.199 35.2951C115.046 34.8886 114.817 34.5154 114.523 34.1959C114.228 33.8755 113.869 33.6222 113.468 33.4531C113.038 33.2707 112.575 33.1796 112.109 33.1858C111.642 33.1781 111.179 33.2692 110.75 33.4531C110.354 33.6244 110 33.8776 109.71 34.1959C109.413 34.5135 109.183 34.8873 109.034 35.2951C108.876 35.7177 108.798 36.1661 108.804 36.6172Z" fill="black"/>
<path d="M118.875 31.8635H122.233C122.684 31.8601 123.134 31.9024 123.577 31.9898C123.984 32.0692 124.374 32.2201 124.728 32.4354C125.06 32.6395 125.336 32.9228 125.53 33.2599C125.746 33.6768 125.851 34.1424 125.835 34.6117C125.857 35.2485 125.651 35.8724 125.256 36.372C124.835 36.862 124.242 37.1707 123.599 37.2335L126.162 41.4969H124.09L121.861 37.4118H120.606V41.4969H118.883L118.875 31.8635ZM121.936 35.9486C122.181 35.9486 122.426 35.9486 122.678 35.9486C122.91 35.9267 123.138 35.8717 123.354 35.7852C123.553 35.6991 123.725 35.5605 123.852 35.3841C123.99 35.1621 124.055 34.9023 124.038 34.6414C124.049 34.4031 123.987 34.1671 123.859 33.9655C123.749 33.7912 123.588 33.654 123.399 33.5718C123.197 33.4862 122.985 33.4288 122.767 33.401C122.53 33.401 122.307 33.401 122.092 33.401H120.606V36.0154L121.936 35.9486Z" fill="black"/>
<path d="M127.469 31.8636H129.185V35.9487H129.267L133.263 31.8636H135.58L131.072 36.32L135.884 41.5192H133.471L129.282 36.7731H129.185V41.5192H127.469V31.8636Z" fill="black"/>
</svg>
