<svg width="151" height="31" viewBox="0 0 151 31" fill="none" xmlns="http://www.w3.org/2000/svg">
<path d="M0 20.8185H6.32081C6.32081 23.5996 8.5963 24.9481 11.2089 24.9481C13.5687 24.9481 15.8442 23.6839 15.8442 21.577C15.8442 19.3015 13.2316 18.7115 10.1133 18.0373C5.73087 16.9417 0.50567 15.6776 0.50567 9.52531C0.50567 3.96299 4.55098 0.844727 10.9561 0.844727C17.614 0.844727 21.3222 4.38438 21.3222 10.1152H15.1699C15.1699 7.6712 13.1473 6.49131 10.7875 6.49131C8.76486 6.49131 6.7422 7.33409 6.7422 9.27247C6.7422 11.2951 9.27052 11.8851 12.3045 12.6436C16.6869 13.7392 22.2493 15.0876 22.2493 21.577C22.2493 27.8135 17.2769 30.8475 11.2932 30.8475C4.55099 30.7632 0 27.055 0 20.8185Z" fill="white"/>
<path d="M46.0154 7.16525H38.009V30.173H31.7725V7.16525H23.7661V1.3501H46.0154V7.16525Z" fill="white"/>
<path d="M60.5108 20.397H56.4655V30.2575H50.229V1.43457H61.8593C67.6744 1.43457 71.9726 5.39561 71.9726 10.9579C71.9726 14.7504 69.8657 17.7844 66.7474 19.3857L73.1525 30.2575H66.1574L60.5108 20.397ZM56.4655 14.5819H61.4379C64.0505 14.5819 65.5675 12.9806 65.5675 10.8736C65.5675 8.68243 64.0505 7.16544 61.4379 7.16544H56.4655V14.5819Z" fill="white"/>
<path d="M94.3904 24.695H82.9286L80.906 30.173H74.248L85.5412 1.3501H91.4406L103.071 30.173H96.3287L94.3904 24.695ZM84.867 19.3012H92.452L88.6595 9.01935L84.867 19.3012Z" fill="white"/>
<path d="M123.466 7.16525H115.46V30.173H109.223V7.16525H101.133V1.3501H123.466V7.16525Z" fill="white"/>
<path d="M141.501 24.695H130.04L128.017 30.173H121.443L132.737 1.3501H138.636L150.266 30.173H143.524L141.501 24.695ZM131.978 19.3012H139.563L135.771 9.01935L131.978 19.3012Z" fill="white"/>
</svg>
