<svg width="22" height="113" viewBox="0 0 22 113" fill="none" xmlns="http://www.w3.org/2000/svg">
<mask id="mask0_499_2336" style="mask-type:luminance" maskUnits="userSpaceOnUse" x="0" y="0" width="22" height="113">
<path d="M21.7436 0H0V112.173H21.7436V0Z" fill="white"/>
</mask>
<g mask="url(#mask0_499_2336)">
<path d="M-25.1152 -105.769V-10.3665V18.9621V57.0555C-19.7215 56.6341 -14.9177 55.7913 -10.6195 52.2516C-1.93894 45.1723 12.304 36.9974 20.5631 36.3232C31.1821 35.4804 41.3797 40.9585 54.6955 27.7269C70.7925 11.6299 102.144 9.69154 117.314 8.84876C140.659 7.5846 142.765 27.0527 164.425 16.6023C171.841 12.9784 190.298 -13.3162 217.435 -30.4245C241.539 -45.5945 259.995 -20.3112 293.116 -64.3041V-68.9393V-86.3847V-105.769H-25.1152Z" fill="#F39200"/>
<path d="M293.032 -67.5068C259.911 -23.514 241.455 -48.7972 217.351 -33.6273C190.214 -16.519 171.841 9.77557 164.341 13.3995C142.766 23.8499 140.659 4.38182 117.23 5.64598C102.06 6.48875 70.7085 8.42715 54.6115 24.5241C41.2957 37.7557 31.0981 32.2777 20.4792 33.1204C12.22 33.7947 -2.02292 41.8853 -10.7035 49.0489C-15.0016 52.5885 -19.8055 53.4313 -25.1992 53.8527V72.8151C-22.8395 71.9723 -19.8897 70.7082 -15.8444 68.517C3.118 58.4037 2.10667 55.3697 22.8389 53.0099C45.0039 50.5659 47.7008 38.8513 69.1072 42.5595C94.2219 46.9419 115.291 33.0362 136.951 47.1948C149.002 55.0326 168.218 53.6841 177.572 48.1218C186.759 42.6438 185.832 34.1318 215.497 34.9745C228.392 35.3116 239.095 20.5631 246.258 16.1807C266.401 4.04471 263.114 2.35916 282.329 5.89882C286.459 6.65732 289.914 6.48875 292.948 5.81454V-67.5068H293.032Z" fill="#E30613"/>
<path d="M293.032 2.52752C289.998 3.20174 286.458 3.3703 282.413 2.6118C263.114 -0.927848 266.485 0.673421 246.342 12.8936C239.179 17.2761 228.476 32.0246 215.581 31.6875C185.915 30.8447 186.843 39.3568 177.656 44.8348C168.301 50.3971 149.086 51.8298 137.035 43.9078C115.375 29.7491 94.3059 43.5706 69.1912 39.2725C47.7848 35.5643 45.0879 47.2788 22.9229 49.7229C2.19065 51.9984 3.20199 55.1166 -15.7604 65.2299C-19.8058 67.4211 -22.7555 68.6853 -25.1152 69.5281V86.5521C-6.99558 84.5295 1.17933 75.4275 16.1807 73.9948C42.4753 71.3822 72.3095 68.9381 85.0354 70.9608C111.92 75.1747 114.111 52.7569 128.86 60.5947C151.193 72.5621 158.61 64.7243 186 66.5784C213.558 68.4325 229.487 47.1103 253.506 45.0033C269.856 43.5706 274.997 28.4007 293.032 29.2435V2.52752Z" fill="#F191BC"/>
<path d="M293.032 25.7887C274.997 24.9459 269.856 40.1159 253.506 41.5486C229.487 43.6555 213.474 64.9777 186 63.1236C158.61 61.3538 151.193 69.1073 128.86 57.1399C114.111 49.2178 111.92 71.7199 85.0354 67.506C72.3095 65.4834 42.5595 68.0117 16.1807 70.54C1.17933 71.9727 -6.99558 81.0747 -25.1152 83.0974V136.192C-11.378 134.507 -1.349 130.377 6.82592 124.73C20.4789 115.207 35.7331 112.089 54.0213 110.572C76.9447 108.633 93.4631 98.8572 110.74 100.627C128.101 102.397 148.159 100.964 167.206 87.9855C177.488 81.0747 186.674 86.3842 197.967 83.3502C207.659 80.7376 221.143 64.472 227.38 60.5953C241.791 51.4933 245.331 63.0393 257.973 53.0103C267.159 45.7625 273.733 54.6116 282.076 48.038C285.869 45.0882 289.324 42.4756 292.864 40.3687V25.7887H293.032Z" fill="#C8D400"/>
<path d="M282.244 44.7511C273.901 51.3247 267.327 42.4756 258.141 49.7235C245.415 59.8368 241.96 48.2065 227.548 57.3084C221.312 61.1852 207.827 77.4507 198.136 80.0633C186.842 83.0973 177.572 77.7036 167.374 84.6986C148.328 97.593 128.27 99.11 110.908 97.3402C93.5473 95.5704 77.1132 105.431 54.1897 107.285C35.9015 108.802 20.6473 112.004 6.99437 121.444C-1.18054 127.09 -11.2938 131.304 -24.9468 132.905V215.16H293.201V36.9976C289.492 39.1045 286.037 41.7171 282.244 44.7511Z" fill="#313433"/>
</g>
</svg>
