<svg width="162" height="81" viewBox="0 0 162 81" fill="none" xmlns="http://www.w3.org/2000/svg">
<path d="M81.87 0.0465796C76.5327 0.0698688 71.2189 0.721967 66.0462 1.9563C63.5068 2.58511 60.991 3.42352 58.5457 4.37838L58.4046 4.44825C58.4046 4.44825 58.7103 22.4974 58.9219 31.4405C58.9925 34.0722 59.4862 36.6573 60.3797 39.1725C61.4142 41.9905 62.7779 44.6688 64.4473 47.1607C66.9161 50.7706 70.0903 53.8447 73.7817 56.1969C75.4276 57.1751 77.144 58.0368 78.9074 58.7588C79.4952 59.0149 80.0125 59.2478 80.4592 59.3876C80.953 59.5972 81.4467 59.7369 81.9405 59.8534C82.4578 59.7369 82.9515 59.5739 83.4218 59.4109C83.9155 59.2478 84.4093 59.015 84.9971 58.7821C87.9596 57.6642 90.7106 56.0572 93.1324 54.0311C95.5777 52.0515 97.6938 49.7225 99.4572 47.1374C101.15 44.6222 102.514 41.9672 103.525 39.1492C104.442 36.634 104.912 34.0489 104.983 31.4172C105.194 22.4508 105.5 4.42496 105.5 4.42496L105.335 4.3318C99.5512 2.02616 93.4145 0.62881 87.1837 0.209604C85.4203 0.0698681 83.8215 0 82.0345 0H81.87V0.0465796ZM81.87 0.954859H82.011C87.1367 1.00144 92.2389 1.63025 97.2235 2.84129C99.6688 3.4701 102.067 4.21535 104.442 5.17021L104.583 5.24008L104.489 10.8994H104.418C98.8459 8.6636 92.9678 7.28954 86.9721 6.87033C85.3263 6.7073 83.6804 6.63743 82.0345 6.59086H81.8935C76.7678 6.63743 71.6656 7.28954 66.681 8.50058C64.2122 9.12939 61.7904 9.92122 59.4392 10.8761L59.3451 5.17021L59.4862 5.12364C65.0586 2.88787 70.9837 1.53709 76.9794 1.11788C78.5782 1.00144 80.2241 0.93157 81.87 0.954859ZM116.292 1.5138C113.259 1.5138 110.79 3.95917 110.79 6.96349C110.79 9.9678 113.259 12.4365 116.292 12.4365C119.325 12.4365 121.794 9.99109 121.794 6.98678C121.794 3.98246 119.349 1.5138 116.292 1.5138ZM80.1536 1.81656C80.036 1.83985 79.9184 1.88643 79.8244 1.9563C79.7303 2.00288 79.6833 2.09603 79.6598 2.18919V3.07418L79.6363 3.91259C79.6363 4.00575 79.7303 4.1222 79.8009 4.16878C79.8949 4.26193 80.0125 4.26193 80.1536 4.28522H81.2822L82.4578 4.30851L83.6334 4.37838C83.7274 4.37838 83.7745 4.42496 83.798 4.49482V4.96061C83.798 5.05377 83.798 5.12363 83.7509 5.21679C83.7274 5.28666 83.6569 5.30995 83.5158 5.30995H82.4813L81.917 5.28666H80.4357L79.5658 5.33324L79.5187 6.07849L80.7414 6.03192L81.6819 6.00862H82.4342L83.1161 6.03192L83.5864 6.05521H84.1036C84.2212 6.05521 84.3623 6.00863 84.4563 5.93876C84.5504 5.86889 84.5974 5.77573 84.6209 5.65929V4.82088L84.6444 3.98246C84.6209 3.8893 84.5739 3.79615 84.5033 3.72628C84.4328 3.65641 84.3388 3.63312 84.2212 3.60984L83.1396 3.56325H80.5298L80.4592 3.51668C80.4122 3.4701 80.3887 3.42352 80.3887 3.37694V3.07418C80.3887 2.95774 80.3887 2.818 80.4357 2.70155C80.4592 2.65497 80.5298 2.6084 80.6473 2.6084L83.2807 2.63168H83.6569L84.5739 2.65497V1.90972L83.3512 1.86314L80.1536 1.81656ZM77.6377 1.93301C77.191 1.93301 73.1234 2.35221 73.1234 2.35221V6.63744L73.5936 6.59086L74.0404 6.52099V5.1935L76.5797 4.91403C76.9089 4.91403 77.2145 5.07706 77.3556 5.37982C77.4732 5.636 77.5672 5.91547 77.6613 6.21823L78.6488 6.12507C78.6253 5.8456 78.5547 5.58942 78.4372 5.35653C78.2961 5.05377 78.061 4.7743 77.8023 4.5414C78.0375 4.40167 78.202 4.16877 78.2726 3.91259C78.2961 3.40023 78.2726 2.91116 78.2255 2.42208C78.202 2.18919 78.0845 1.9563 77.6377 1.93301ZM86.7605 1.97959C86.5489 1.97959 86.3138 2.04945 86.1492 2.18919C85.9846 2.30564 85.8671 2.49195 85.8435 2.70155V5.68258L85.8671 5.89218C85.8906 5.98534 85.9376 6.03191 85.9846 6.07849C86.0552 6.17165 86.1492 6.21823 86.2903 6.24152H86.4784L86.5254 6.26481H86.5724L88.5475 6.47441L90.593 6.68401L90.8987 6.75388V5.96205L90.546 5.89218L90.2639 5.86889H90.2168L88.5239 5.65929L86.8311 5.44968C86.8075 5.44968 86.7605 5.44968 86.737 5.40311L86.7135 5.30995V3.0276C86.7135 2.93445 86.7135 2.86458 86.8075 2.818C86.8781 2.77142 86.9486 2.74813 87.0192 2.72484C87.3954 2.74813 90.546 3.16734 91.0163 3.23721V2.39879L88.2888 2.09603L86.7605 1.97959ZM116.269 2.30564C118.055 2.30564 119.795 3.30707 120.571 5.03048L120.618 5.12364C121.089 6.2881 121.089 7.59229 120.618 8.75676C120.148 9.87464 119.278 10.7363 118.149 11.2021C116.974 11.6912 115.657 11.6912 114.482 11.2021C113.353 10.7596 112.46 9.87464 112.013 8.75676C111.543 7.59229 111.543 6.2881 112.013 5.12364C112.46 4.00575 113.353 3.14405 114.482 2.67827C115.069 2.46866 115.681 2.32892 116.269 2.30564ZM91.8157 2.65497V2.84129C91.8157 3.09747 91.8157 3.44681 91.7687 3.84273C91.7687 4.37838 91.7451 4.91403 91.7216 5.44968L91.6981 5.79902V6.31139L91.6746 6.82375L91.8862 6.87033L92.0038 6.91691L92.2154 6.94019L92.5446 6.98678L92.5681 6.68401V6.42783L92.5916 6.12507V5.28666C92.6386 5.28666 92.7091 5.28666 92.7562 5.30995H92.8267L93.8377 5.51955L95.3895 5.82231L95.5071 5.86889L95.6717 5.91547L95.8598 5.96205V6.80046L95.8363 7.07993V7.40598L95.8128 7.56901L96.0949 7.63887L96.2595 7.68545L96.4241 7.73203L96.6592 7.8019V7.38269C96.7062 6.87033 96.7062 6.33468 96.7298 5.70587V3.65641L96.4006 3.56325L95.9538 3.4701V4.1222L95.9068 4.5414V5.24008H95.8833L95.6717 5.1935L95.5071 5.14692L95.3895 5.12364L95.272 5.07705L94.2845 4.86745L93.2734 4.68114H93.1794L92.9208 4.61127L92.6621 4.56469H92.5916V2.77142L92.38 2.72484H92.2389L92.0743 2.67827L91.8157 2.65497ZM71.3599 2.70155L67.3628 3.4701C67.0572 3.56326 66.728 3.79615 66.728 4.1222V6.98678C66.728 7.28954 67.1042 7.68545 67.4099 7.61558L71.407 6.84704C71.7832 6.75388 72.0418 6.42783 72.0888 6.05521V3.16734C72.0183 2.84129 71.7126 2.65497 71.3599 2.70155C71.3835 2.70155 71.3835 2.70155 71.3599 2.70155ZM76.9559 2.84129C77.0734 2.84129 77.1675 2.84129 77.2615 2.93444C77.3321 3.00431 77.3556 3.05089 77.3556 3.14405V3.63312C77.3556 3.77286 77.3086 3.91259 77.2145 4.00575C77.1205 4.09891 76.9794 4.16878 76.8383 4.16878L75.4276 4.28522L74.0168 4.40167V3.09747L76.9559 2.84129ZM70.6781 3.51668C71.0543 3.4701 71.1718 3.6797 71.1718 3.93588V5.77573C71.1954 6.00862 71.0308 6.21823 70.7956 6.2881L67.9507 6.82375C67.6685 6.89362 67.5039 6.68401 67.5039 6.42783V4.61127C67.5039 4.23864 67.6685 4.07562 68.1152 3.98246C68.0917 3.98246 70.6781 3.51668 70.6781 3.51668ZM116.41 3.6797H114.129V10.4802H114.975V7.42927H116.292L117.632 10.4802H118.549L117.138 7.31282C117.562 7.21967 117.985 7.01006 118.267 6.68401C118.526 6.38125 118.69 6.00863 118.69 5.58942C118.69 5.35653 118.643 5.12363 118.596 4.91403C118.526 4.68114 118.408 4.47154 118.244 4.28522C118.055 4.07562 117.82 3.93588 117.538 3.81944C117.185 3.72628 116.809 3.6797 116.41 3.6797ZM97.9994 3.88931L97.9524 6.40454L97.9054 8.12795L100.257 8.82662C101.009 9.08281 101.855 9.33899 102.702 9.64175L102.796 9.66504L103.078 9.75819C103.125 9.45543 103.125 9.22254 103.125 8.91978L102.89 8.82662H102.843L102.796 8.80333C102.373 8.64031 101.879 8.50057 101.432 8.33755L99.998 7.87176L99.6923 7.77861L99.3631 7.68545L99.0105 7.59229L98.8224 7.52243V7.10322L98.8459 6.68401L99.3161 6.80046L101.056 7.31282L102.702 7.87176L102.866 7.91835L103.149 8.0115V7.12651L102.89 7.03335L102.772 7.01006C101.761 6.63744 100.75 6.31139 99.7158 6.03192L99.4807 5.96205L99.2221 5.89218L99.1045 5.8456L98.8929 5.77573V4.91403L99.1986 5.00719L99.5747 5.10035L99.9039 5.1935H99.9274C100.844 5.44968 101.761 5.72916 102.655 6.05521L102.866 6.14836L103.172 6.26481V5.49626L102.961 5.40311L102.772 5.33324H102.749C101.174 4.82087 99.5983 4.30851 97.9994 3.88931ZM65.2938 4.05233H65.0116C63.3657 4.56469 61.7434 5.10035 60.121 5.70587L60.1681 7.84848V9.85135L61.2967 9.47872V8.0115L65.5054 6.7073C65.5994 6.68401 65.67 6.61415 65.717 6.54428C65.7875 6.4977 65.811 6.40454 65.8345 6.33468C65.8345 6.31139 65.8581 6.26481 65.8581 6.24152L65.811 4.5414C65.7875 4.37838 65.6935 4.21535 65.5289 4.1222C65.4583 4.07562 65.3878 4.05233 65.2938 4.05233ZM114.975 4.42496H116.245C116.621 4.42496 116.974 4.49482 117.303 4.68114C117.609 4.89074 117.75 5.24008 117.726 5.58942C117.726 5.75245 117.703 5.89218 117.656 6.05521C117.609 6.19494 117.538 6.31139 117.421 6.38125C117.28 6.4977 117.091 6.56757 116.903 6.61415C116.621 6.7073 116.363 6.7073 116.057 6.7073H114.928L114.975 4.42496ZM64.4708 4.93732H64.5179C64.6119 4.93732 64.6824 4.96061 64.7295 5.03048C64.8 5.10034 64.8235 5.14693 64.8235 5.24008L64.8705 5.8456C64.847 5.96205 64.8 6.0552 64.7295 6.12507C64.6589 6.19494 64.5649 6.24152 64.4708 6.26481L61.2261 7.31282L61.2026 6.05521C61.2026 6.05521 62.4723 5.54284 62.9896 5.35653C63.5068 5.1935 64.4708 4.93732 64.4708 4.93732ZM81.3762 7.40598V18.9109H73.9463C73.8522 18.9109 73.8993 18.8643 73.9933 18.7944C74.5106 18.3985 75.1219 18.1423 75.7803 18.0259C75.8508 18.0259 75.8743 18.0026 75.7803 17.9094C75.1454 17.2806 74.252 17.071 73.429 17.3738C72.7001 17.63 72.1123 18.1656 71.8537 18.8876C71.8537 18.9574 71.8067 18.9807 71.7597 18.9807L70.5605 19.0273C70.49 19.0273 70.4665 18.9342 70.4665 18.8876C70.5605 18.3752 70.8897 17.956 71.3364 17.6998C71.7361 17.4204 72.1829 17.2806 72.6531 17.234H72.6766C72.7237 17.2108 72.7237 17.1409 72.7001 17.0943C72.6296 17.0011 72.5356 16.9313 72.418 16.8614C72.0418 16.6518 71.5951 16.5819 71.1483 16.6518C69.8787 16.7915 68.8676 17.793 68.7736 19.0739C68.7501 19.2136 68.7736 19.2602 68.656 19.3068C68.3504 19.3999 67.8331 19.4698 67.5509 19.5164C67.5039 19.5397 67.4334 19.4232 67.4569 19.3767C67.551 18.8876 67.7626 18.4684 68.0682 18.0725C68.2798 17.7697 68.5855 17.5368 68.9147 17.3505C69.0087 17.3272 69.0322 17.2573 69.0087 17.2108C68.3739 16.6518 67.0572 17.234 66.5164 17.8163C66.0226 18.4451 65.7875 19.2835 65.8345 20.0753V20.1918L64.8235 20.5411L64.7765 20.448C64.6824 19.8424 64.8235 19.2602 65.1527 18.7478C65.2938 18.4917 65.5054 18.2821 65.764 18.119V18.0259C65.4583 17.6532 64.3298 17.9094 63.9771 18.2355C63.1777 19.0273 63.2482 19.7726 63.2012 20.9836C63.2012 21.0535 63.1071 21.2631 63.0601 21.2864C62.919 21.3795 62.7544 21.4494 62.5898 21.4727H62.5193L62.4253 21.2631C62.1431 20.7973 61.5553 20.6343 61.0851 20.9137C61.038 20.9137 61.0145 20.9603 60.991 20.9836C60.6148 21.3097 60.5678 21.8686 60.897 22.2412C60.944 22.2878 60.9675 22.3344 60.897 22.3344C60.3327 22.4974 60.027 23.0796 60.1916 23.6386C60.1916 23.6619 60.1916 23.6619 60.2151 23.6852C60.3327 23.9879 60.6383 24.1975 60.9675 24.1975C61.2967 24.1975 61.6258 24.1044 61.8845 23.9181C61.9315 23.8715 61.9785 23.8948 62.0255 23.9181C62.3077 24.3838 62.919 24.5236 63.3422 24.2441C63.7655 23.9646 63.93 23.5454 63.6479 22.8468C63.6244 22.8002 63.6949 22.7536 63.7419 22.707C66.1402 21.333 68.8676 20.5877 71.6421 20.5178C72.0418 20.5644 72.418 20.6343 72.7942 20.7973H72.8412V23.1495L72.7707 23.2194C72.2534 23.5221 71.8537 24.0112 71.6656 24.5934C71.6656 24.64 71.6656 24.64 71.5716 24.64L70.0903 24.803C70.0433 24.803 69.9962 24.7332 69.9962 24.7099C70.3489 23.8016 70.9837 22.9865 71.8302 22.4508C71.8537 22.4043 71.8537 22.3344 71.8302 22.2878C71.7126 22.1714 71.5716 22.0782 71.407 22.0316C70.5605 21.9618 69.7141 22.3111 69.1733 22.9399C68.656 23.5687 68.3974 24.314 68.3974 25.1058C68.3974 25.1757 68.3974 25.2455 68.3269 25.2688L67.3628 25.5483C67.3158 25.5483 67.2688 25.5017 67.2688 25.4551C67.1042 24.4304 67.598 23.4057 68.4914 22.8933C68.609 22.8002 68.3974 22.6371 68.2328 22.6371C67.2688 22.5906 66.3518 23.1029 65.9051 23.9413C65.6935 24.5702 65.67 25.2688 65.8345 25.9209C65.8345 25.9908 65.8816 26.084 65.8345 26.084L64.9881 26.3634C64.9411 26.3867 64.8941 26.3634 64.8941 26.2703C64.7765 25.8744 64.753 25.4551 64.847 25.0592C64.9411 24.5934 65.1762 24.1742 65.5289 23.8482V23.755C65.2232 23.6153 64.8705 23.592 64.5649 23.6852C64.0476 23.8249 63.6244 24.151 63.3893 24.6167C62.966 25.362 63.0836 26.084 63.5068 27.132C63.5068 27.2018 63.5538 27.2717 63.5068 27.3183L63.1777 27.5745C63.1541 27.5978 63.1071 27.5745 63.0836 27.5279C62.9425 27.3183 62.7779 27.0155 62.5663 26.9224C62.2136 26.7593 61.8139 26.7826 61.4848 27.0155C61.1791 27.295 61.0615 27.7142 61.1791 28.1101L61.4142 28.4827C61.4377 28.506 61.4142 28.5759 61.3907 28.5759C61.2496 28.6924 61.038 28.7855 60.897 28.9252C60.6383 29.2746 60.6383 29.7404 60.897 30.0897C61.1321 30.4623 61.6023 30.6021 62.0255 30.3925C62.2372 30.2993 62.4253 30.2062 62.6134 30.0897C62.6839 30.0431 62.7074 29.9733 62.7779 30.0198C62.919 30.1829 63.1071 30.3226 63.3422 30.3925C63.6479 30.4856 63.9771 30.439 64.2357 30.2527C64.5414 30.0897 64.7295 29.7637 64.6589 29.4143C64.5884 29.1814 64.4473 28.9485 64.3062 28.7389C64.2122 28.6458 64.2122 28.6458 64.3062 28.5992C65.6229 27.8539 67.0572 27.2484 68.4914 26.8059C69.8787 26.3867 71.3129 26.2004 72.7472 26.2936H72.8412V31.161H59.7684L59.4157 11.6446L59.4627 11.6213C65.0351 9.38557 70.9367 8.03479 76.9324 7.63887C78.4607 7.49914 79.8714 7.42927 81.3762 7.40598ZM73.8052 9.45543C73.1234 9.40886 72.465 9.61846 71.8772 10.0144C71.1718 10.5035 70.7251 11.9241 70.6076 12.4597C70.6076 12.5063 70.584 12.5529 70.5135 12.5529C69.9257 12.6228 69.3614 12.7159 68.7736 12.8557C68.8206 12.2967 69.0557 11.7844 69.4084 11.3884C69.8081 11.0158 70.2314 10.6898 70.6781 10.387C70.7016 10.3637 70.6781 10.2938 70.6311 10.2706C69.9962 10.0144 69.2673 10.0144 68.6325 10.2938C67.7155 10.6898 67.1042 11.5049 66.9396 12.4597C66.8691 12.7858 66.8456 13.1584 66.8456 13.5078L66.7515 13.5543L64.9646 14.1366L64.8705 14.1133C64.847 13.5311 64.9881 12.9721 65.2938 12.4597C65.5994 11.9707 66.1637 11.7145 66.5634 11.2953C66.6104 11.272 66.6575 11.2021 66.6105 11.1788C65.5759 10.7596 64.6119 11.1788 63.789 12.1104C63.2247 12.9488 63.0601 13.9503 63.2717 14.9284C63.2952 15.0216 63.2717 15.0914 63.2247 15.138L62.6604 15.3476C62.6134 15.3476 62.5663 15.3476 62.5663 15.301C62.3077 14.5558 61.4377 14.6955 61.038 14.9284C60.6148 15.1846 60.4502 15.7202 60.7089 16.1394C60.7089 16.2093 60.7089 16.2326 60.6618 16.2559C60.121 16.5354 59.8859 17.1642 60.1446 17.7231C60.3562 18.0957 60.8029 18.2355 61.2026 18.0725L61.8374 17.7697H61.908C61.908 17.7697 61.908 17.8163 61.955 17.8163C62.2842 18.2355 62.8955 18.3286 63.3422 17.956C63.6244 17.7464 63.7419 17.7231 63.8595 17.3505C63.9065 17.071 63.8125 16.8148 63.6479 16.6052C63.6009 16.6052 63.6479 16.5121 63.6479 16.5121C66.9396 14.8352 70.537 13.927 74.2284 13.8338C75.5451 13.8804 76.8383 14.3462 77.8493 15.2079C77.8964 15.2545 77.9434 15.301 78.0139 15.301C78.0845 15.2777 78.108 15.2079 78.1315 15.1613C78.3196 14.5558 78.108 13.8804 77.6142 13.4612C77.191 13.042 76.6737 12.7392 76.0859 12.5995C76.0389 12.5995 76.0389 12.5063 76.0624 12.5063C76.274 12.2734 76.5797 12.0871 76.9089 11.9707C77.4026 11.8775 77.8964 11.8542 78.4372 11.8542C78.4607 11.8542 78.5312 11.8076 78.5312 11.7611C78.3196 11.2021 77.8023 10.8062 77.2145 10.7829C76.6267 10.7131 76.0154 10.8062 75.4746 11.0391C74.9103 11.3419 74.4636 11.8309 74.2049 12.4132L74.1344 12.4597H72.6061C72.5826 12.4597 72.5356 12.4597 72.5356 12.4132C72.6061 11.9008 72.8177 11.4816 73.1704 11.109C73.6877 10.6898 74.2755 10.3404 74.8868 10.1541C74.9573 10.1308 74.9809 10.061 74.9809 10.0144C74.8398 9.82806 74.6752 9.68833 74.4636 9.59517C74.299 9.50201 74.0404 9.45543 73.8052 9.45543ZM82.1521 13.4612H104.418C104.418 15.1846 104.371 17.0011 104.324 18.9342H82.1756L82.1521 13.4612ZM73.5701 19.6794H90.3579C90.4049 19.6794 90.4049 19.7027 90.4049 19.726V32.5351C90.4049 33.2105 90.2874 33.8393 90.0522 34.4448C89.3704 36.1682 88.0772 37.5656 86.4314 38.404C85.1147 39.1725 83.5864 39.615 82.0581 39.6383C79.9419 39.615 77.9434 38.8465 76.3681 37.4957C74.6517 36.1915 73.6406 34.2119 73.5936 32.0693V19.7493C73.5466 19.7493 73.5701 19.6794 73.5701 19.6794ZM104.301 19.726L104.207 24.5236H104.019H104.23C104.254 24.5236 104.301 19.726 104.301 19.726ZM84.9736 20.774C84.8795 20.7973 84.762 20.8672 84.7385 20.9836L84.1507 22.7769L84.1742 22.9166L84.2917 22.9865C84.3858 22.9865 84.4328 22.9865 84.4563 22.8933L84.5504 22.5906H85.3968L85.4909 22.8933C85.4909 22.9632 85.5849 22.9865 85.6319 22.9865C85.679 22.9865 85.7495 22.9632 85.773 22.9166C85.7965 22.87 85.7965 22.8002 85.773 22.7536L85.1382 20.9603C85.1382 20.8672 85.0441 20.7973 84.9736 20.774ZM79.7068 20.8206C79.6128 20.8206 79.5422 20.8905 79.5422 20.9603C79.5422 21.0302 79.6128 21.1001 79.7068 21.1001H79.989V22.8235C79.989 22.9166 80.083 22.9632 80.1536 22.9632C80.2241 22.9632 80.2946 22.8933 80.2946 22.8235V21.1001H80.6003C80.6708 21.1001 80.7414 21.0302 80.7414 20.9603C80.7414 20.8905 80.6708 20.8206 80.6003 20.8206H79.7068ZM81.0941 20.8206C81.0235 20.8206 80.953 20.8905 80.953 20.9603C80.953 21.0302 81.0235 21.1001 81.0941 21.1001H81.3997V22.8235C81.3997 22.9166 81.4938 22.9632 81.5643 22.9632C81.6348 22.9632 81.7054 22.8933 81.7054 22.8235V21.1001H82.011C82.0816 21.1001 82.1521 21.0302 82.1521 20.9603C82.1521 20.8905 82.0816 20.8206 82.011 20.8206H81.0941ZM83.1161 20.8206C82.881 20.7973 82.6694 20.937 82.5753 21.1233C82.4343 21.3562 82.3637 21.6124 82.3637 21.8686C82.3637 22.1481 82.4343 22.381 82.5518 22.6371C82.6459 22.8468 82.8575 22.9865 83.1161 22.9865C83.2572 22.9865 83.3747 22.9399 83.4923 22.8933C83.6804 22.7536 83.798 22.544 83.845 22.3111C83.8685 22.1947 83.892 22.0549 83.892 21.9385C83.892 21.8453 83.845 21.7289 83.6804 21.7289H83.2102C83.0926 21.7289 83.0691 21.7754 83.0691 21.822C83.0691 21.9152 83.1161 21.9618 83.1867 21.9618H83.5393V22.0549C83.5628 22.3344 83.3747 22.5906 83.1161 22.6604C82.9515 22.6604 82.7869 22.544 82.7399 22.381C82.6459 22.2179 82.6224 22.0316 82.6224 21.8453C82.6224 21.6357 82.6929 21.4494 82.7634 21.2864C82.8105 21.1466 82.9515 21.0535 83.0926 21.0302C83.2337 21.0302 83.3512 21.1233 83.4218 21.2398C83.4453 21.3097 83.5158 21.333 83.5864 21.3097C83.6569 21.3097 83.6804 21.2165 83.6804 21.1699C83.6334 20.937 83.3747 20.7973 83.1161 20.8206ZM88.0067 20.8206C87.9126 20.8206 87.8421 20.8905 87.8421 20.9603C87.8421 21.0302 87.9126 21.1001 88.0067 21.1001H88.3123V22.8235C88.3123 22.9166 88.3829 22.9632 88.4534 22.9632C88.524 22.9632 88.5945 22.8933 88.5945 22.8235V21.1001H88.9001C88.9942 21.1001 89.0412 21.0302 89.0412 20.9603C89.0412 20.8905 88.9707 20.8206 88.9001 20.8206H88.0067ZM75.5687 20.8206C75.4041 20.7973 75.216 20.8439 75.0749 20.937C74.9338 21.0302 74.8398 21.1932 74.8398 21.3562C74.8163 21.5193 74.8868 21.7056 75.0044 21.8453C75.0984 21.9618 75.263 22.0316 75.4276 22.0316C75.6392 22.0316 75.8038 22.1015 75.9213 22.2645C75.9684 22.3577 75.9213 22.4741 75.8508 22.5673C75.7568 22.6604 75.6157 22.707 75.4746 22.6837C75.3335 22.6837 75.1925 22.6139 75.0984 22.5207C75.0514 22.4508 74.9573 22.4275 74.8868 22.4508C74.7927 22.4974 74.7927 22.6139 74.7927 22.6604C74.9338 22.87 75.1689 23.0098 75.4511 22.9865C75.6862 23.0098 75.9213 22.9399 76.0859 22.7769C76.2035 22.6604 76.2505 22.4974 76.2505 22.3344C76.274 22.1714 76.18 21.9851 76.0389 21.8919C75.8273 21.7754 75.5922 21.7056 75.357 21.6823C75.216 21.659 75.1219 21.5193 75.1454 21.3795C75.1925 21.1932 75.357 21.1001 75.4981 21.1233C75.6392 21.1233 75.8038 21.1699 75.8978 21.2864C75.9919 21.3795 76.1329 21.2864 76.1329 21.1932C76.1329 21.1001 75.9919 20.8206 75.5687 20.8206ZM76.5562 20.8206C76.4856 20.8206 76.4151 20.8905 76.4151 20.9603V20.9836C76.4151 21.0535 76.4856 21.1233 76.5562 21.1233H76.8618V22.8235C76.8618 22.9166 76.9324 22.9865 77.0029 22.9865C77.0969 22.9865 77.1675 22.8933 77.1675 22.8235V21.1233H77.4732C77.5437 21.1233 77.6142 21.0535 77.6142 20.9836C77.6142 20.9137 77.5672 20.8206 77.4967 20.8206H77.4732H76.5562ZM86.3138 20.8206L86.1962 20.8905C86.1727 20.9137 86.1492 20.9603 86.1492 20.9836V22.8002C86.1492 22.8933 86.1962 22.9399 86.2668 22.9632H86.2903C86.3843 22.9632 86.4549 22.8933 86.4549 22.8235V22.2412H86.7605L87.2308 22.87C87.2778 22.9399 87.3248 22.9632 87.3718 22.9632C87.4659 22.9632 87.5129 22.8933 87.5129 22.8468C87.5129 22.8002 87.4894 22.7303 87.4424 22.707L87.0662 22.1947H87.1132C87.2308 22.1481 87.3248 22.0782 87.4189 21.9851C87.5599 21.8686 87.6305 21.6823 87.607 21.496C87.607 21.2864 87.4894 21.1001 87.3248 20.9836C87.1602 20.8905 86.9956 20.8439 86.8075 20.8439C86.784 20.8206 86.3138 20.8206 86.3138 20.8206ZM78.0139 20.8206C77.9434 20.8206 77.8729 20.8905 77.8729 20.9603V20.9836V22.0782C77.8729 22.2878 77.9199 22.544 78.0139 22.7303C78.155 22.9166 78.3666 23.0098 78.6017 22.9865C78.8134 23.0331 79.025 22.9166 79.166 22.7303C79.2601 22.5207 79.3306 22.3111 79.3071 22.0782V20.9836C79.3071 20.9137 79.2366 20.8439 79.166 20.8439H79.1425C79.072 20.8439 79.0014 20.9137 79.0014 20.9836V22.1481C79.0014 22.2878 78.9779 22.4275 78.9074 22.544C78.8369 22.6371 78.7193 22.6837 78.6017 22.6604C78.4842 22.6837 78.3666 22.6371 78.2961 22.544C78.2255 22.4275 78.1785 22.2878 78.202 22.1481V20.9836C78.1785 20.8905 78.108 20.8206 78.0139 20.8206ZM86.4314 21.1233H86.8311C86.9486 21.1233 87.0662 21.1466 87.1367 21.2165C87.2308 21.3097 87.2543 21.3795 87.2543 21.496C87.2543 21.7522 87.0427 21.9385 86.784 21.9385H86.4549L86.4314 21.1233ZM84.9501 21.1466L85.3263 22.3111H84.6209L84.9501 21.1466ZM82.011 23.6852C81.7994 23.755 81.5878 23.8016 81.4232 23.9181C81.2822 24.0345 81.1646 24.1742 81.0705 24.3373C81.047 24.3606 81.0235 24.3838 80.9765 24.4071L80.8589 24.4304L80.4122 24.64C80.2711 24.7099 80.13 24.803 79.989 24.8496C79.8714 24.8962 79.7774 24.9195 79.6598 24.9428C79.4012 24.8962 79.119 24.9195 79.025 25.199C79.025 25.2688 79.0485 25.3154 79.119 25.3387C79.166 25.362 79.1895 25.3853 79.2366 25.4086L79.3776 25.4784C79.4247 25.4784 79.4482 25.4784 79.4717 25.525L79.4952 25.5716V25.5949C79.4952 25.6415 79.4247 25.688 79.4012 25.688C79.2601 25.7113 79.1425 25.688 79.025 25.6182H79.0014C78.9544 25.5716 78.8839 25.5716 78.8369 25.6182C78.5782 25.8278 78.3196 26.0374 78.0375 26.2004L77.9434 26.2936L77.9199 26.3401V26.41C77.9199 26.4799 77.8494 26.5032 77.8023 26.5032C77.7553 26.5265 77.7083 26.573 77.7083 26.6196V26.7361C77.7318 26.8292 77.8023 26.8758 77.9199 26.8758H77.9669L78.1785 26.7826H78.2726L78.2961 26.8059V26.8991C78.2726 26.9457 78.2491 26.9922 78.202 27.0155C78.155 27.0854 78.1315 27.132 78.202 27.1786C78.2961 27.2717 78.4372 27.2484 78.5077 27.1553C78.5547 27.1087 78.5782 27.0388 78.6017 26.9922C78.6253 26.9224 78.6723 26.8758 78.7428 26.8758C78.8604 26.8292 79.0014 26.8059 79.119 26.7826C79.2131 26.7826 79.3071 26.7826 79.3776 26.8525L79.4482 26.9224V26.9689C79.4247 27.0621 79.4012 27.132 79.3541 27.2251L79.2836 27.4347L79.2131 27.621L79.119 27.7142L78.7428 28.017C78.5312 28.2033 78.3901 28.3896 78.2255 28.6458C78.1785 28.7156 78.155 28.7855 78.1315 28.8554C78.0845 29.065 78.0374 29.3212 77.8258 29.1581C77.6142 29.065 77.4026 28.902 77.191 28.7389C77.1205 28.6924 77.0264 28.6225 76.9794 28.5293C76.7678 28.2266 76.5091 28.5293 76.3916 28.7389C76.1565 29.1348 75.8743 29.5075 75.5687 29.8568C75.5451 29.95 75.4981 30.0198 75.4511 30.0897C75.3806 30.1829 75.3335 30.2993 75.357 30.4158C75.357 30.6254 75.2865 30.8117 75.1925 30.9747C75.0984 31.0679 75.0514 31.1843 75.0514 31.3007V31.6268C75.0514 31.72 75.0984 31.7665 75.1689 31.7665H75.2395C75.4041 31.6967 75.5687 31.6035 75.7332 31.4638L75.8038 31.4172C75.8508 31.3706 75.8508 31.3007 75.8273 31.2542L75.8038 31.2076L75.7568 31.161C75.7332 31.1377 75.6862 31.1144 75.6627 31.0679V30.9281L75.7097 30.7884C75.7097 30.7418 75.7332 30.6719 75.7803 30.6487L76.0389 30.439C76.133 30.3459 76.18 30.1829 76.1329 30.0664V29.9034C76.1329 29.8335 76.1565 29.8102 76.2035 29.7404L76.3681 29.5308C76.4386 29.4143 76.5562 29.3212 76.6737 29.2746C76.8618 29.2746 77.0264 29.3212 77.1675 29.4376C77.285 29.6006 77.3791 29.8102 77.4496 30.0198C77.4967 30.2062 77.5672 30.3692 77.6613 30.5322C77.7553 30.6254 77.8729 30.6952 77.9904 30.6254L78.061 30.5788L78.108 30.5555C78.155 30.5555 78.202 30.5555 78.2255 30.6254L78.4372 30.835C78.5312 30.9048 78.4607 30.9514 78.3666 30.9514H78.0375C77.6848 31.0679 77.285 31.1377 76.9089 31.1377H76.8383C76.7678 31.1377 76.7443 31.1843 76.7443 31.2309L76.7208 31.2775L76.6737 31.3706C76.6502 31.4638 76.6502 31.5569 76.6737 31.6501C76.8148 32.1624 76.8853 32.6981 76.7678 33.2337C76.7208 33.4434 76.7678 33.653 76.9089 33.7927L77.0734 33.8859L77.1675 33.9324C77.2145 34.0023 77.238 34.0489 77.238 34.142C77.238 34.2352 77.3086 34.3516 77.3556 34.4215C77.4496 34.538 77.5672 34.6311 77.7083 34.7243H77.7553C77.8494 34.7708 77.9199 34.7243 77.9669 34.6544C78.0374 34.4914 78.0845 34.3051 78.061 34.1187C78.061 34.0256 77.9904 33.9557 77.8964 33.9324L77.8023 33.9557L77.7318 33.979H77.6377C77.5907 33.9557 77.5672 33.9091 77.5437 33.8626C77.4967 33.7461 77.4967 33.6297 77.5202 33.5132V33.4434L77.5437 33.2803C77.5437 33.2338 77.5437 33.1872 77.4967 33.1406C77.4496 33.0474 77.4496 33.0241 77.3791 33.0009C77.3321 33.0009 77.3086 32.9776 77.2851 32.931C77.238 32.8844 77.238 32.8611 77.2615 32.8378C77.3086 32.5817 77.3086 32.3255 77.2851 32.0693C77.2851 31.9761 77.2851 31.9063 77.3321 31.8597C77.5202 31.6967 77.8258 31.8131 77.9904 31.883C78.2491 31.9761 78.4842 32.0227 78.7193 32.0693C79.1425 32.1159 79.5657 31.9994 79.8949 31.7665C79.9184 31.7432 79.9184 31.72 79.9655 31.7432L80.3181 31.9994C80.6238 32.209 80.953 32.3488 81.2822 32.4652C81.7524 32.5118 82.1991 32.5118 82.6929 32.4419C82.7869 32.4419 82.928 32.4652 83.0221 32.5118L83.0691 32.5817C83.0691 32.768 82.975 32.9077 82.975 33.094C82.975 33.1872 83.0221 33.2803 83.0691 33.3735L83.1631 33.6297L83.2337 33.7228C83.4923 34.0489 83.5158 34.5379 83.2337 34.864C83.0691 35.027 82.881 35.19 82.6694 35.3298C82.4813 35.4695 82.2462 35.5627 82.011 35.586C81.8464 35.586 81.7054 35.6558 81.5878 35.7723C81.4467 35.912 81.3057 36.0285 81.1411 36.0983C81.0705 36.1216 81 36.1915 81 36.2614C80.906 36.4477 80.8589 36.634 80.8119 36.8436C80.7884 36.9367 80.8824 36.9833 80.9765 36.9833C81.1411 36.96 81.3057 36.8902 81.4938 36.8436C81.5878 36.8436 81.6348 36.7271 81.6113 36.634L81.5878 36.6107L81.5173 36.471V36.3545C81.5643 36.3312 81.5878 36.2846 81.6348 36.2614C81.6819 36.2148 81.7524 36.2148 81.7994 36.2148H81.8935C82.1286 36.3079 82.4107 36.2148 82.5048 35.9819C82.5518 35.912 82.5988 35.8421 82.6459 35.7956C83.0926 35.5161 83.5628 35.2832 84.0801 35.0969C84.1271 35.0969 84.1742 35.0503 84.1742 35.0037V34.2818C84.1742 34.1653 84.2212 33.9557 84.3858 33.9557C84.4563 33.9557 84.5033 34.0023 84.5268 34.0489C84.6914 34.2585 84.9031 34.3982 85.1617 34.4914L85.3733 34.5845C85.5614 34.6777 85.679 34.8407 85.7025 35.0503C85.726 35.1668 85.7025 35.2599 85.6319 35.3531L85.1382 36.0518C85.0676 36.1682 84.9736 36.2846 84.8325 36.3545C84.5033 36.5641 84.2212 36.8203 83.939 37.0998L83.7039 37.8217C83.6569 37.9615 83.7509 38.0081 83.8685 37.9615C84.0801 37.9149 84.2447 37.845 84.4093 37.7519L84.5033 37.682C84.5269 37.6587 84.5268 37.6121 84.5268 37.5888C84.5268 37.519 84.4798 37.4491 84.4328 37.4025C84.3858 37.3327 84.3858 37.2395 84.4328 37.1696C84.4563 37.1231 84.5033 37.0998 84.5268 37.0765L84.9501 36.96C85.1147 36.9367 85.2793 36.8669 85.4203 36.7504C85.4438 36.7038 85.4673 36.6806 85.4909 36.634V36.5874C85.6554 36.0518 86.0316 35.5394 86.5489 35.2832C86.6194 35.2599 86.643 35.19 86.643 35.1202L86.6195 34.9106L86.2433 34.3284C86.1257 34.1653 86.0552 34.0023 86.0316 33.816C86.0316 33.6064 86.0787 33.4201 86.1727 33.257L86.2668 33.1173C86.3373 32.9776 86.4784 32.9077 86.5724 32.768C86.6665 32.6515 86.784 32.5118 86.8546 32.3488L87.0662 31.7898C87.1132 31.6268 87.0427 31.4638 87.0427 31.3007C87.0427 31.2309 87.0897 31.2076 87.1132 31.1377C87.1837 31.0446 87.2778 30.9747 87.3954 30.9281C87.5129 30.9048 87.6305 30.9048 87.7245 30.9514L88.2653 31.161C88.3594 31.161 88.4769 31.161 88.571 31.1144C88.665 31.0911 88.7826 31.0213 88.8766 30.9514V30.8583H88.618C88.524 30.835 88.4534 30.7884 88.4064 30.7185C88.3594 30.6486 88.3123 30.5788 88.3123 30.5089L88.3829 30.3925C88.524 30.2993 88.6415 30.1829 88.7121 30.0664C88.7826 29.9267 88.8061 29.7869 88.8061 29.6472H88.7356C88.6415 29.7404 88.618 29.8568 88.5004 29.9267C88.4064 29.9965 88.2888 30.0198 88.1948 30.0198C88.1242 30.0198 88.0537 29.9965 87.9832 29.9267C87.9361 29.8568 87.9126 29.7869 87.8891 29.7171C87.8656 29.6239 87.9832 29.6006 88.0302 29.5773C88.1713 29.5773 88.3123 29.5308 88.4534 29.4842C88.5475 29.4376 88.5945 29.3677 88.6415 29.2746C88.665 29.2047 88.6885 29.1348 88.6885 29.065C88.6885 29.0184 88.6885 28.9951 88.665 29.0184C88.571 29.0184 88.524 29.0883 88.4534 29.1116C88.3359 29.1581 88.1948 29.1348 88.0772 29.0883C87.9597 28.9951 87.8656 28.8787 87.7951 28.7622V28.506C87.9361 28.506 88.0537 28.3663 88.1242 28.2033L88.1713 28.1101L88.2653 27.9937C88.2888 27.9005 88.2888 27.8074 88.2888 27.7142C88.2888 27.6443 88.2418 27.5512 88.1948 27.5046H88.1007C88.0537 27.5978 88.1007 27.7142 88.0067 27.8074C87.9361 27.9005 87.8656 27.9937 87.7716 28.0635C87.701 28.1101 87.654 28.1567 87.607 28.1567C87.4894 28.1101 87.4189 28.017 87.3954 27.9005C87.3954 27.8074 87.4424 27.6676 87.4894 27.5745L87.8891 26.9457L88.2183 26.573C88.2888 26.4799 88.3123 26.2703 88.2418 26.2237C88.1478 26.2004 88.1007 26.41 88.0302 26.4566C87.701 26.573 87.3954 26.7361 87.1132 26.9457C86.9721 27.1087 86.9016 27.295 86.8311 27.5046C86.784 27.621 86.8075 27.7841 86.7605 27.9005C86.7605 27.9471 86.6665 27.9937 86.6195 27.9704C86.5254 27.8772 86.4549 27.7375 86.4078 27.621C86.3843 27.5279 86.3843 27.4347 86.4078 27.3183C86.4313 27.2717 86.4078 27.2484 86.3843 27.2717C86.2433 27.3416 86.1727 27.458 86.1022 27.5745C86.0552 27.7608 86.0552 27.9471 86.1492 28.1101C86.2903 28.3896 86.4549 28.6225 86.6665 28.8554C86.8075 29.065 86.9721 29.3212 87.0897 29.5308C87.2073 29.6938 87.2543 29.9267 87.2308 30.1596C87.1602 30.3692 87.0662 30.5788 86.9016 30.7185C86.9016 30.7185 86.8311 30.7651 86.8075 30.7418C86.643 30.5788 86.4549 30.439 86.2668 30.2993C86.0316 30.1596 85.7965 30.0431 85.5379 29.9965C85.2087 29.95 84.856 29.95 84.5268 29.9965C84.1742 29.9965 83.8215 30.0664 83.4688 30.0431C83.1866 30.0664 82.9045 30.0431 82.6224 29.95C82.4343 29.8568 82.2697 29.7171 82.1521 29.5308C82.0581 29.3444 82.011 29.1116 82.0581 28.902C82.0581 28.7156 82.1286 28.5526 82.1991 28.3896C82.2697 28.2499 82.3872 28.1334 82.5048 28.0635C82.6694 27.9704 82.8575 27.9471 83.0221 27.9937L83.2337 28.1334C83.3042 28.2033 83.3748 28.2731 83.4453 28.343L83.5158 28.3197C83.5393 28.0868 83.4923 27.8539 83.4218 27.621C83.3512 27.458 83.2337 27.295 83.1161 27.132C83.1161 27.0854 83.2102 27.1087 83.2337 27.0854C83.4218 27.0854 83.6099 27.132 83.7509 27.2484C83.845 27.3183 83.9626 27.3882 84.0331 27.5279L84.0566 27.5046C84.0801 27.2251 83.9626 26.9457 83.7745 26.7361C83.7039 26.6196 83.5864 26.5032 83.4688 26.4333C83.3747 26.41 83.5158 26.3401 83.5864 26.3401C83.7274 26.3168 83.892 26.3401 84.0096 26.41L84.1507 26.5032L84.2447 26.5963C84.2682 26.5963 84.3152 26.5497 84.2917 26.5265C84.2682 26.4333 84.2447 26.3634 84.1977 26.2936C83.9861 26.084 83.7509 25.8744 83.4923 25.688L83.3983 25.6182C83.3277 25.525 83.2572 25.4086 83.2337 25.3154L83.1396 25.1757V25.0127C83.2337 24.8729 83.2807 24.8496 83.4453 24.7798C83.5629 24.7332 83.6804 24.7099 83.798 24.6866L83.9155 24.7332C83.9155 24.7332 83.939 24.6633 83.892 24.64C83.7509 24.5469 83.5628 24.5003 83.3747 24.5003C83.1396 24.4537 82.9045 24.477 82.6694 24.5469C82.5048 24.64 82.3167 24.6866 82.1521 24.6866C82.0345 24.6866 81.8935 24.6866 81.7994 24.6167C81.7289 24.5702 81.6583 24.5003 81.6583 24.4071C81.6583 24.2907 81.6819 24.1277 81.7524 24.0112C81.7994 23.9181 81.8935 23.8482 81.9875 23.8016C82.0816 23.8016 82.1051 23.755 82.0816 23.7085C82.1286 23.6386 82.0581 23.6619 82.011 23.6852ZM81.0941 25.0592C81.2116 25.0592 81.3057 25.1058 81.3997 25.1757C81.6819 25.4086 81.8229 25.7346 81.87 26.084C81.9405 26.5497 81.964 27.0388 81.87 27.5046C81.87 27.6676 81.7994 27.8074 81.6583 27.8772C81.5878 27.9005 81.5173 27.9238 81.4467 27.9238C81.3762 27.9238 81.3527 27.8074 81.3527 27.621V26.3401C81.3057 26.0607 81.2351 25.7812 81.0941 25.5017C81.0941 25.4319 81.047 25.4086 81 25.362L80.906 25.2455C80.8589 25.199 80.7884 25.1757 80.7414 25.1291L80.7649 25.0592C80.8824 25.0359 81 25.0127 81.0941 25.0592ZM91.1808 25.2921H104.207L104.089 30.9281H91.1808V25.2921ZM91.2044 31.6734H104.089C103.972 34.142 103.501 36.5874 102.678 38.9163C101.691 41.6645 100.374 44.2496 98.7518 46.6949C96.4006 50.1883 93.344 53.1693 89.7701 55.475C88.1948 56.4298 86.5489 57.245 84.8325 57.9902C84.2917 58.2231 83.7745 58.456 83.3512 58.5957C82.8575 58.7355 82.4343 58.8985 82.1521 58.9684V40.5C82.4343 40.5 82.6694 40.5 82.9515 40.4534L83.0456 40.7096C83.1631 40.9192 83.3512 41.0589 83.5864 41.1288C83.892 41.1754 84.1742 41.0589 84.3623 40.8493C84.6444 41.0589 84.9971 41.1521 85.3263 41.0124C85.5849 40.9425 85.773 40.7096 85.773 40.4534C85.7965 40.2671 85.773 40.1041 85.679 39.9411L85.5849 39.8013C86.2668 39.4986 86.8781 39.1725 87.4659 38.7533H87.5364C88.4534 38.5204 92.2389 37.1696 94.5666 37.1463C96.0009 37.1231 97.4116 37.4491 98.6578 38.1245C99.3396 38.5204 99.9509 39.0095 100.468 39.615L100.562 39.5451C100.703 39.1259 100.797 38.7067 100.774 38.2409C100.703 37.5423 99.998 37.0299 99.7864 36.8203C99.7864 36.8203 99.7864 36.7737 99.8569 36.7271C99.9274 36.6573 100.021 36.5874 100.116 36.5175C100.539 36.2148 101.033 36.0052 101.55 36.0052C101.62 36.0052 101.597 35.912 101.573 35.7956C101.432 35.19 100.515 34.7941 99.5983 34.9106C98.9634 35.027 98.4226 35.4229 98.07 35.9586C98.0464 36.0052 97.9524 36.0518 97.9289 36.0052C97.6232 35.8887 97.3176 35.7956 97.0119 35.7257C96.9179 35.7024 96.9649 35.6093 96.9649 35.6093C97.153 35.2832 97.3881 34.9804 97.7173 34.7708C98.07 34.4914 98.5167 34.2818 98.9869 34.2119C99.034 34.2119 99.034 34.142 98.9869 34.1187C98.8224 33.7461 98.4697 33.4666 98.07 33.3735C97.4116 33.1639 96.6592 33.2803 96.1184 33.6995C95.6012 34.142 95.2014 34.7476 94.9898 35.3764C94.9663 35.4462 94.9428 35.4695 94.8958 35.4695C94.6372 35.3997 94.0258 35.4462 93.9788 35.3997C93.9318 35.3997 93.9318 35.3065 93.9553 35.2832C94.0493 34.9339 94.261 34.6078 94.4961 34.3516C94.7547 34.0489 95.0604 33.7927 95.4131 33.653L95.4601 33.6064C95.5071 33.5365 95.5071 33.4434 95.4366 33.3968C94.3785 32.8844 93.1089 33.1639 92.3565 34.0722C92.0038 34.5845 91.7451 35.19 91.6041 35.7956C91.6041 35.8189 91.557 35.8887 91.51 35.8887L90.2403 36.1915L90.0287 36.2381L89.9817 36.1915C90.7341 34.9572 91.1573 33.5598 91.2044 32.0926C91.2044 32.1159 91.2044 31.6734 91.2044 31.6734ZM73.7582 33.6995C73.8287 33.979 73.9698 34.2352 74.0639 34.5147L73.7582 33.6995ZM75.1925 36.6573C76.8618 38.73 79.3541 39.9411 82.011 39.9876C84.0566 39.9643 86.0316 39.2191 87.5835 37.8916C86.0316 39.1958 84.0566 39.9178 82.011 39.9411C79.3777 39.9178 76.8618 38.7067 75.1925 36.6573ZM60.8734 37.9615H75.6392L75.9448 38.2177C77.4731 39.5219 79.4012 40.3137 81.3997 40.4767V43.481H63.2247C62.2607 41.6877 61.4848 39.8479 60.8734 37.9615ZM91.6746 39.1492C91.2984 39.1958 90.9457 39.3122 90.6166 39.5218C90.1933 39.778 89.8406 40.1274 89.629 40.5699C89.3704 41.1987 89.2528 41.8275 89.2058 42.4796L89.1118 42.5727L88.2653 42.7823C88.2653 42.7823 88.2183 42.7823 88.1948 42.7358C88.1007 42.107 88.2418 41.4781 88.571 40.9425C88.7121 40.6863 88.9001 40.4534 89.1118 40.2671C89.1588 40.2438 89.1823 40.174 89.1588 40.1507L89.0647 40.1041C88.524 40.0109 87.9361 40.1041 87.4424 40.4068C86.8075 40.7329 86.3843 41.3617 86.3138 42.0837C86.2433 42.5727 86.2903 43.0618 86.4078 43.5509C86.4078 43.5742 86.4078 43.6208 86.3608 43.644L85.4438 44.0865H85.3968C85.3028 43.7139 85.0676 43.3879 84.715 43.1783C84.3388 43.0152 83.939 43.0385 83.5864 43.2248C83.3512 43.3646 83.1631 43.5509 83.0691 43.7838C82.881 44.203 83.0221 44.6688 83.3747 44.9017C83.3747 44.925 83.4218 44.9715 83.3747 44.9948C83.1396 45.088 83.1396 45.1346 82.9515 45.3907C82.7869 45.7634 82.834 46.2059 83.0926 46.5086C83.4453 47.0443 84.1742 47.184 84.6914 46.8347C84.7385 46.8114 84.7855 46.7648 84.8325 46.7182C84.8325 46.7182 84.8795 46.7182 84.903 46.7648C84.9971 46.9045 85.1147 47.0443 85.2557 47.1374C85.6084 47.347 86.0552 47.347 86.3843 47.1374C86.7605 46.9278 86.9721 46.5086 86.9016 46.0894C86.9016 45.8565 86.8076 45.6236 86.6195 45.4606C86.5959 45.414 86.6195 45.3907 86.7135 45.3442C88.2418 44.4825 89.9112 43.9002 91.6746 43.6673C92.5681 43.5509 93.4851 43.5742 94.3785 43.7372C94.9428 43.8536 95.5071 44.1331 95.9538 44.5058C96.33 44.8085 96.6592 45.1346 96.9884 45.5072C97.0824 45.5072 97.2 45.5072 97.2941 45.4373C97.4822 45.0181 97.5057 44.5523 97.3176 44.1331C97.106 43.5742 96.7768 43.0851 96.3536 42.6659V42.6193C96.3536 42.5262 96.4006 42.5029 96.4711 42.4097C96.8708 42.0604 97.3646 41.7809 97.8819 41.6878C97.9524 41.6878 97.9759 41.6179 97.9524 41.5713C97.5762 40.826 96.6827 40.5 95.9068 40.8028C95.4131 41.0124 94.9898 41.385 94.7782 41.8508C94.7547 41.8974 94.7077 41.9672 94.6842 41.9439L93.8377 41.8508C93.7437 41.8508 93.7672 41.7576 93.7907 41.7576C93.8848 41.4549 94.0493 41.1754 94.2845 40.9658C94.5901 40.6164 94.9898 40.337 95.4131 40.174C95.4601 40.174 95.4601 40.1274 95.4601 40.1041C95.1779 39.7547 94.7312 39.5451 94.2845 39.5218C93.7202 39.4986 93.1559 39.7082 92.7562 40.1041C92.2624 40.6164 91.9803 41.2685 91.9097 41.9672C91.8627 42.0138 91.8392 42.0604 91.8157 42.0604C91.6041 42.107 91.3454 42.107 91.1103 42.1302C91.0633 42.1302 91.0633 42.0604 91.0633 42.0371C91.0633 41.6878 91.1573 41.3384 91.3219 41.0356C91.6276 40.4301 92.1213 39.9178 92.7091 39.5684C92.8032 39.4986 92.8032 39.3588 92.7797 39.3588C92.4505 39.1725 92.0508 39.1026 91.6746 39.1492ZM88.9001 47.0676C88.665 47.0676 88.4299 47.1374 88.2418 47.2772C87.6775 47.5566 87.2543 48.0457 87.0427 48.6512C86.9486 49.117 86.9486 49.6061 87.0897 50.0719V50.1417L86.5489 50.3979H86.4784C86.1492 49.7924 86.2197 49.0704 86.69 48.5581C86.737 48.5115 86.7605 48.4649 86.6665 48.4416C86.1727 48.3718 85.679 48.5581 85.3498 48.9307C84.9501 49.3965 84.8325 50.0253 85.0441 50.6075C85.0911 50.8171 85.1617 51.0267 85.3028 51.2363C85.3028 51.2363 85.3968 51.3062 85.3263 51.3295L84.9736 51.6323H84.903C84.762 51.3295 84.4798 51.1199 84.1742 51.0267C83.892 50.9569 83.6099 51.05 83.3983 51.2363C83.0456 51.5857 83.0221 52.1446 83.3747 52.5173L83.3983 52.5405C83.4923 52.6337 83.6099 52.7036 83.7509 52.7501C83.7745 52.7501 83.798 52.7967 83.7745 52.82C83.5628 52.9597 83.3983 53.1228 83.2807 53.3324C83.1396 53.6817 83.2102 54.0776 83.4923 54.3571C83.7039 54.5201 83.9626 54.6133 84.2212 54.5667C84.6209 54.4503 84.9266 54.1475 85.1382 53.7982C85.1382 53.7982 85.1852 53.7516 85.2087 53.7982C85.3733 54.0078 85.6084 54.1708 85.8906 54.2872C86.1727 54.4037 86.4784 54.3338 86.69 54.1242C86.9956 53.9146 87.1132 53.4954 86.9721 53.1228C86.8546 52.9132 86.69 52.7269 86.4784 52.6104C86.4314 52.5638 86.4784 52.5172 86.5254 52.4707C87.5364 51.6555 88.7591 51.1199 90.0758 50.9336C90.9457 50.8171 91.8392 50.9569 92.6386 51.3528C92.9443 51.5158 93.2264 51.7487 93.4851 52.0049C93.5086 52.0049 93.6026 52.0515 93.6261 52.0049C94.0258 51.6788 94.0493 51.0733 93.7202 50.6774C93.5791 50.5144 93.4145 50.3746 93.2029 50.2582L93.1794 50.2116C93.438 49.5595 93.9788 49.0472 94.6842 48.8841C94.7547 48.8841 94.7312 48.8375 94.6842 48.7677C94.402 48.069 93.1324 48.0457 92.5446 48.4183C92.1684 48.6745 91.8627 49.0006 91.6511 49.3965C91.6511 49.4431 91.6276 49.4897 91.5806 49.4897L91.0633 49.3266V49.2568C91.416 48.5581 92.0508 48.0457 92.8032 47.8594C92.8502 47.8361 92.8267 47.7895 92.8032 47.7662C92.5446 47.0909 91.1573 47.1374 90.4755 47.5799C89.8406 47.9991 89.3704 48.6279 89.2058 49.3732V49.4664C88.9942 49.5362 88.8296 49.5828 88.618 49.6061C88.5945 49.6061 88.571 49.5828 88.571 49.5362C88.524 49.2102 88.571 48.8608 88.7356 48.5814C88.9472 48.2087 89.2528 47.8594 89.5585 47.5334C89.6055 47.4868 89.6055 47.4169 89.5585 47.3936C89.3469 47.1607 89.1353 47.0909 88.9001 47.0676ZM67.9977 50.3281H81.3527V58.8752C81.094 58.7821 80.8119 58.6656 80.4827 58.5725C80.036 58.4327 79.5658 58.1765 78.9779 57.9436C76.133 56.849 73.4996 55.312 71.1718 53.3557C70.0433 52.4241 68.9852 51.4227 67.9977 50.3281ZM117.726 69.9609V80.9534H120.172V76.8312H135.008V80.9534H137.477V69.9609H135.031V74.4324H120.195V69.9609H117.726ZM26.2398 69.9609C24.876 69.9609 23.771 71.0555 23.7475 72.4063V78.5546C23.7475 79.9054 24.876 80.9767 26.2398 80.9767H41.8284C43.1922 80.9767 44.2737 79.8821 44.2737 78.5546V72.4063C44.2737 71.1021 43.2157 70.0075 41.8755 69.9842L26.2398 69.9609ZM47.2363 69.9609V80.9534H49.6581V78.0423H63.2717C64.6119 78.0423 65.717 79.1602 65.717 80.4876V80.9301H68.1858V80.9068C68.1858 79.3232 67.2688 77.8792 65.811 77.1806C67.1277 77.134 68.1623 76.0627 68.1623 74.7585V72.383C68.1623 71.0322 67.0572 69.9609 65.6935 69.9609H47.2363ZM0 69.9842V80.9767H2.44528V78.0656H18.4337C19.7974 78.0656 20.9025 76.971 20.9025 75.6435V72.4063C20.9025 71.0555 19.7739 69.9842 18.4337 69.9842H0.0470249H0ZM97.2941 69.9842C95.9303 69.9842 94.8017 71.0788 94.8017 72.4063V78.5546C94.8017 79.8821 95.8833 81 97.2235 81H114.928V78.5779H97.5762C97.4116 78.5779 97.2705 78.4615 97.2705 78.2752V72.7323C97.2705 72.5227 97.4586 72.4063 97.6702 72.4063H114.928V69.9609L97.2941 69.9842ZM140.345 69.9842V80.9767H162V78.9273H142.814V76.5285H162V74.4557H142.814V72.0569H162V69.9842H140.345ZM73.4055 69.9842C72.0653 70.0308 70.9837 71.1021 70.9837 72.4529V74.0831C70.9837 75.4339 72.1123 76.5285 73.4761 76.5285H89.0412C89.2528 76.5285 89.4409 76.6915 89.4644 76.9011V78.5779C89.4644 78.7875 89.2763 78.9273 89.0412 78.9273H71.3364V81H89.4644C90.8046 81 91.9097 79.8821 91.9097 78.5546V76.9011C91.9097 75.5736 90.7811 74.4557 89.4409 74.4557H73.8522C73.6406 74.479 73.4525 74.316 73.4525 74.1064V72.4296C73.4525 72.22 73.6406 72.0569 73.8522 72.0569H91.51V70.0075L73.4055 69.9842ZM49.6816 72.383H65.2938C65.5289 72.4063 65.717 72.5926 65.717 72.8022V75.2243C65.717 75.4339 65.5524 75.6202 65.3408 75.6435H49.6816V72.383ZM2.44528 72.383L18.034 72.4063C18.2456 72.4063 18.4572 72.6159 18.4572 72.8255V75.2243C18.4572 75.4339 18.2926 75.6202 18.081 75.6435H2.49231V72.383H2.44528ZM26.6395 72.4063H41.4523C41.6639 72.4063 41.8755 72.5926 41.8755 72.8255V78.1587C41.8755 78.3916 41.7109 78.5546 41.4758 78.5779H26.5454C26.3808 78.5779 26.2398 78.4382 26.2398 78.2752V72.7323C26.2633 72.5227 26.4514 72.383 26.6395 72.4063Z" fill="white"/>
</svg>
