<?xml version="1.0" encoding="UTF-8"?>
<svg width="16px" height="18px" viewBox="0 0 16 18" version="1.1" xmlns="http://www.w3.org/2000/svg" xmlns:xlink="http://www.w3.org/1999/xlink">
    <title>attach-interface-symbol-of-a-clip</title>
    <g id="Desktop" stroke="none" stroke-width="1" fill="none" fill-rule="evenodd">
        <g id="006---Support" transform="translate(-773.000000, -1515.000000)" fill="#0072CE" fill-rule="nonzero">
            <g id="Contact" transform="translate(279.000000, 1197.000000)">
                <g id="Form" transform="translate(476.000000, 0.000000)">
                    <g id="msg" transform="translate(0.000000, 152.000000)">
                        <g id="attach-interface-symbol-of-a-clip" transform="translate(18.000000, 166.000000)">
                            <path d="M5.38905419,17.809978 C4.62088988,17.809978 3.8471267,17.5597087 3.20213743,17.0423736 L1.85337079,15.9606728 C1.12271888,15.3755914 0.663611931,14.5413605 0.56059281,13.6108291 C0.459253349,12.6920553 0.731918087,11.7553651 1.30916109,11.0342313 L5.76977703,5.46615982 C6.20872806,4.91747102 6.83468119,4.57426058 7.5322998,4.49699624 C8.23551728,4.42253134 8.91633929,4.62129105 9.46334842,5.0596822 L9.82111591,5.34522433 C10.3698047,5.78585502 10.7152547,6.41180815 10.7897196,7.10998665 C10.8681037,7.80536571 10.6682242,8.49234648 10.2298331,9.03935561 L7.01048556,13.0571013 C6.67455365,13.4736569 6.06483722,13.5402834 5.64828165,13.2077108 C5.2306063,12.8723388 5.16286004,12.2626223 5.49711229,11.8455069 L8.7164598,7.82776117 C8.83123654,7.68387034 8.88442576,7.50414676 8.86370996,7.32162376 C8.84355404,7.1368612 8.75341231,6.97281445 8.60896159,6.85803771 L8.25175399,6.57249559 C7.95445424,6.33286415 7.51886253,6.3810144 7.28147064,6.67943391 L2.82029482,12.2475054 C2.56218713,12.5688803 2.44013187,12.9876754 2.48548268,13.3980722 C2.53139337,13.8146278 2.73575195,14.1875122 3.06272568,14.4489792 L4.41149232,15.5312399 C5.08447592,16.0698507 6.07267564,15.9629124 6.61296613,15.2865694 L12.8881743,7.45431686 C13.4284648,6.7796536 13.3198468,5.79201377 12.6440638,5.25284305 L8.93817486,2.28376481 C8.61064125,2.02117804 8.2013642,1.89912277 7.78704817,1.94839279 C7.37105248,1.9937436 6.99816806,2.19866206 6.73670105,2.52563579 L1.72571667,8.78348747 C1.38978475,9.2017227 0.780068328,9.26890908 0.363512754,8.93465683 C-0.0541625928,8.5992848 -0.121908862,7.98956838 0.212343393,7.57189303 L5.22500744,1.31516113 C5.81008886,0.583949329 6.64431978,0.124842379 7.57485118,0.0218232591 C8.50930179,-0.0817557478 9.41967727,0.185870011 10.1508891,0.771511314 L13.8562181,3.74002966 C15.3639925,4.94714501 15.608103,7.15701712 14.4015476,8.66535141 L8.12801906,16.4981639 C7.43599932,17.360949 6.41700585,17.809978 5.38905419,17.809978 Z" id="Path"></path>
                        </g>
                    </g>
                </g>
            </g>
        </g>
    </g>
</svg>