<?xml version="1.0" encoding="UTF-8"?>
<svg width="20px" height="19px" viewBox="0 0 20 19" version="1.1" xmlns="http://www.w3.org/2000/svg" xmlns:xlink="http://www.w3.org/1999/xlink">
    <title>chat</title>
    <g id="Desktop" stroke="none" stroke-width="1" fill="none" fill-rule="evenodd">
        <g id="006---Support" transform="translate(-276.000000, -1568.000000)" fill="#0072CE" fill-rule="nonzero">
            <g id="Contact" transform="translate(276.000000, 1190.000000)">
                <g transform="translate(0.000000, 119.000000)" id="chat">
                    <g transform="translate(0.000000, 259.000000)">
                        <path d="M17.2727267,0 L8.18181832,0 C6.6755873,0 5.4545458,1.2210415 5.4545458,2.72727252 L5.4545458,4.5454542 L2.72727328,4.5454542 C1.22104225,4.5454542 3.77477747e-07,5.7664957 3.77477747e-07,7.27272672 L3.77477747e-07,12.7272718 C-0.000605425171,13.8835682 0.728015481,14.9145668 1.81818244,15.2999988 L1.81818244,17.272726 C1.81874761,17.6006933 1.9959216,17.9029313 2.28181876,18.063635 C2.41768755,18.1406371 2.57110215,18.1813389 2.72727328,18.1818168 C2.89043994,18.1818168 3.05058627,18.1378071 3.19090961,18.0545441 L7.52727291,15.4545443 L11.8181817,15.4545443 C13.3244127,15.4545443 14.5454542,14.2335028 14.5454542,12.7272718 L14.5454542,12.1545445 L16.8090904,13.5090899 C16.9494137,13.5923529 17.1095601,13.6363146 17.2727267,13.6363626 C17.4288979,13.6358847 17.5823124,13.5951829 17.7181812,13.5181808 C18.0040784,13.3574771 18.1812524,13.0552391 18.1818176,12.7272718 L18.1818176,10.7545446 C19.2719845,10.3691126 20.0006054,9.33811402 20.0000004,8.18181756 L20.0000004,2.72727252 C20.0000004,1.2210415 18.7789577,0 17.2727267,0 Z M12.7272725,12.7272718 C12.7272725,13.2293488 12.3202587,13.6363626 11.8181824,13.6363626 L7.27272748,13.6363626 C7.10956081,13.6364106 6.94941448,13.6803723 6.80909115,13.7636353 L3.63636412,15.6636352 L3.63636412,14.5454534 C3.63636412,14.0433764 3.22935028,13.6363626 2.72727328,13.6363626 C2.22519627,13.6363626 1.81818244,13.2293488 1.81818244,12.7272718 L1.81818244,7.27272672 C1.81818244,6.77064972 2.22519627,6.36363588 2.72727328,6.36363588 L5.4545458,6.36363588 L5.4545458,8.18181756 C5.4545458,9.68804859 6.6755873,10.9090901 8.18181832,10.9090901 L12.4727271,10.9090901 L12.7272725,11.0636355 L12.7272725,12.7272718 Z M18.1818176,8.18181756 C18.1818176,8.68389457 17.7748037,9.0909084 17.2727275,9.0909084 C16.7706497,9.0909084 16.3636359,9.49792224 16.3636359,9.99999924 L16.3636359,11.118181 L13.1909088,9.21818112 C13.0505855,9.13491813 12.8904392,9.09095639 12.7272725,9.0909084 L8.18181832,9.0909084 C7.67974131,9.0909084 7.27272748,8.68389457 7.27272748,8.18181756 L7.27272748,2.72727252 C7.27272748,2.22519551 7.67974131,1.81818168 8.18181832,1.81818168 L17.2727275,1.81818168 C17.7748037,1.81818168 18.1818176,2.22519551 18.1818176,2.72727252 L18.1818176,8.18181756 Z" id="Shape"></path>
                    </g>
                </g>
            </g>
        </g>
    </g>
</svg>