<?xml version="1.0" encoding="UTF-8"?>
<svg width="19px" height="14px" viewBox="0 0 19 14" version="1.1" xmlns="http://www.w3.org/2000/svg" xmlns:xlink="http://www.w3.org/1999/xlink">
    <title>email</title>
    <g id="Desktop" stroke="none" stroke-width="1" fill="none" fill-rule="evenodd">
        <g id="006---Support" transform="translate(-276.000000, -1607.000000)" fill="#0072CE" fill-rule="nonzero">
            <g id="Contact" transform="translate(276.000000, 1190.000000)">
                <g transform="translate(0.000000, 119.000000)" id="email">
                    <g transform="translate(0.000000, 298.000000)">
                        <path d="M15.7613636,5.52588278e-16 L2.48863636,5.52588278e-16 C1.11420045,5.52588278e-16 -1.3814707e-16,1.11420045 -1.3814707e-16,2.48863636 L-1.3814707e-16,10.7840909 C-1.3814707e-16,12.1585268 1.11420045,13.2727273 2.48863636,13.2727273 L15.7613636,13.2727273 C17.1357995,13.2727273 18.25,12.1585268 18.25,10.7840909 L18.25,2.48863636 C18.25,1.11420045 17.1357995,5.52588278e-16 15.7613636,5.52588278e-16 Z M16.5909091,10.5767045 L12.5261364,6.92670455 L16.5909091,4.08136364 L16.5909091,10.5767045 Z M1.65909091,4.08136364 L5.72386364,6.92670455 L1.65909091,10.5767045 L1.65909091,4.08136364 Z M7.1175,7.90556818 L8.65215909,8.97568182 C8.93652279,9.1729536 9.31347721,9.1729536 9.59784091,8.97568182 L11.1325,7.90556818 L15.2802273,11.6136364 L2.98636364,11.6136364 L7.1175,7.90556818 Z M2.48863636,1.65909091 L15.7613636,1.65909091 C16.0755834,1.66160899 16.361408,1.84145368 16.4996591,2.12363636 L9.125,7.28340909 L1.75034091,2.12363636 C1.88859197,1.84145368 2.17441657,1.66160899 2.48863636,1.65909091 Z" id="Shape"></path>
                    </g>
                </g>
            </g>
        </g>
    </g>
</svg>