<svg width="17" height="17" viewBox="0 0 17 17" fill="none" xmlns="http://www.w3.org/2000/svg">
<path d="M8.51897 4.11621C10.9096 4.11621 12.8828 6.08943 12.8828 8.48005C12.8828 10.9086 10.9096 12.8439 8.51897 12.8439C6.0904 12.8439 4.15513 10.9086 4.15513 8.48005C4.15513 6.08943 6.0904 4.11621 8.51897 4.11621ZM8.51897 11.326C10.0748 11.326 11.327 10.0738 11.327 8.48005C11.327 6.92425 10.0748 5.67201 8.51897 5.67201C6.92522 5.67201 5.67299 6.92425 5.67299 8.48005C5.67299 10.0738 6.96317 11.326 8.51897 11.326ZM14.0592 3.96443C14.0592 3.39523 13.6038 2.93987 13.0346 2.93987C12.4654 2.93987 12.01 3.39523 12.01 3.96443C12.01 4.53362 12.4654 4.98898 13.0346 4.98898C13.6038 4.98898 14.0592 4.53362 14.0592 3.96443ZM16.9431 4.98898C17.019 6.393 17.019 10.6051 16.9431 12.0091C16.8672 13.3751 16.5636 14.5515 15.577 15.576C14.5904 16.5626 13.3761 16.8662 12.01 16.9421C10.606 17.018 6.39397 17.018 4.98996 16.9421C3.62388 16.8662 2.44754 16.5626 1.42299 15.576C0.436384 14.5515 0.132812 13.3751 0.0569196 12.0091C-0.0189732 10.6051 -0.0189732 6.393 0.0569196 4.98898C0.132812 3.62291 0.436384 2.40862 1.42299 1.42201C2.44754 0.435407 3.62388 0.131836 4.98996 0.0559431C6.39397 -0.0199498 10.606 -0.0199498 12.01 0.0559431C13.3761 0.131836 14.5904 0.435407 15.577 1.42201C16.5636 2.40862 16.8672 3.62291 16.9431 4.98898ZM15.1217 13.489C15.577 12.3885 15.4632 9.73228 15.4632 8.48005C15.4632 7.26576 15.577 4.60951 15.1217 3.47112C14.8181 2.75014 14.2489 2.143 13.5279 1.87737C12.3895 1.42201 9.73326 1.53585 8.51897 1.53585C7.26674 1.53585 4.61049 1.42201 3.51004 1.87737C2.75112 2.18094 2.18192 2.75014 1.87835 3.47112C1.42299 4.60951 1.53683 7.26576 1.53683 8.48005C1.53683 9.73228 1.42299 12.3885 1.87835 13.489C2.18192 14.2479 2.75112 14.8171 3.51004 15.1207C4.61049 15.576 7.26674 15.4622 8.51897 15.4622C9.73326 15.4622 12.3895 15.576 13.5279 15.1207C14.2489 14.8171 14.856 14.2479 15.1217 13.489Z" fill="white"/>
</svg>
