<svg width="9" height="13" viewBox="0 0 9 13" fill="none" xmlns="http://www.w3.org/2000/svg">
<path d="M4.5 0.927734C3.30701 0.929279 2.16334 1.39259 1.31977 2.21608C0.476196 3.03956 0.00158253 4.156 0 5.32059C0 8.47429 4.1925 12.4242 4.37062 12.5908C4.40527 12.6236 4.45168 12.642 4.5 12.642C4.54831 12.642 4.59472 12.6236 4.62937 12.5908C4.80749 12.4242 8.99999 8.47429 8.99999 5.32059C8.99841 4.156 8.52379 3.03956 7.68022 2.21608C6.83665 1.39259 5.69298 0.929279 4.5 0.927734ZM4.5 7.33398C4.09207 7.33398 3.69331 7.21589 3.35413 6.99466C3.01496 6.77343 2.7506 6.45898 2.5945 6.09108C2.43839 5.72318 2.39755 5.31835 2.47713 4.92779C2.55671 4.53723 2.75314 4.17848 3.04159 3.8969C3.33003 3.61533 3.69754 3.42357 4.09762 3.34588C4.49771 3.2682 4.91241 3.30807 5.28928 3.46046C5.66615 3.61285 5.98827 3.87091 6.2149 4.20201C6.44153 4.53311 6.56249 4.92238 6.56249 5.32059C6.56217 5.85447 6.34476 6.3664 5.95804 6.74392C5.57132 7.12143 5.0469 7.33366 4.5 7.33398Z" fill="white"/>
</svg>
