<?xml version="1.0"?>
<svg xmlns="http://www.w3.org/2000/svg" viewBox="0 0 32 32" width="512" height="512"><g id="Layer_2" data-name="Layer 2"><path d="M29.37,12A.74.74,0,0,0,30,11.3V7.44A1.44,1.44,0,0,0,28.56,6H3.44A1.44,1.44,0,0,0,2,7.44V11.3a.74.74,0,0,0,.63.74,4,4,0,0,1,0,7.93A.74.74,0,0,0,2,20.7v3.86A1.44,1.44,0,0,0,3.44,26H28.56A1.44,1.44,0,0,0,30,24.56V20.7a.74.74,0,0,0-.63-.74,4,4,0,0,1,0-7.93ZM16,20.94a1,1,0,1,1,1-1A1,1,0,0,1,16,20.94Zm0-3.87a1,1,0,1,1,1-1A1,1,0,0,1,16,17.06Zm0-4a1,1,0,1,1,1-1A1,1,0,0,1,16,13.06Z"/><path d="M28.56,27H3.44A2.44,2.44,0,0,1,1,24.56V20.7A1.74,1.74,0,0,1,2.47,19,3,3,0,0,0,5,16a3,3,0,0,0-2.54-3A1.73,1.73,0,0,1,1,11.3V7.44A2.44,2.44,0,0,1,3.44,5H28.56A2.44,2.44,0,0,1,31,7.44V11.3A1.73,1.73,0,0,1,29.53,13,3,3,0,0,0,27,16a3,3,0,0,0,2.54,3A1.74,1.74,0,0,1,31,20.7v3.86A2.44,2.44,0,0,1,28.56,27ZM3,20.92v3.65a.44.44,0,0,0,.44.44H28.56a.44.44,0,0,0,.44-.44V20.92a5,5,0,0,1,0-9.83V7.44A.44.44,0,0,0,28.56,7H3.44A.44.44,0,0,0,3,7.44v3.65a5,5,0,0,1,0,9.83Z"/></g></svg>
