<svg width="19" height="16" viewBox="0 0 19 16" fill="none" xmlns="http://www.w3.org/2000/svg">
<path d="M17.0665 3.97011C17.0665 4.16288 17.0665 4.3171 17.0665 4.50987C17.0665 9.8689 13.1624 15.999 5.9863 15.999C3.75538 15.999 1.71037 15.3436 0 14.187C0.297456 14.2255 0.594912 14.2641 0.92955 14.2641C2.75147 14.2641 4.42466 13.6087 5.76321 12.5291C4.05284 12.4906 2.60274 11.334 2.11937 9.71469C2.37965 9.75324 2.60274 9.79179 2.86301 9.79179C3.19765 9.79179 3.56947 9.71469 3.86693 9.63758C2.08219 9.25204 0.74364 7.63276 0.74364 5.66649V5.62794C1.26419 5.93637 1.89628 6.09059 2.52838 6.12914C1.4501 5.39661 0.780822 4.16288 0.780822 2.77493C0.780822 2.00384 0.966732 1.30987 1.30137 0.731554C3.23483 3.16047 6.13503 4.77975 9.36986 4.97252C9.2955 4.66408 9.25832 4.35565 9.25832 4.04722C9.25832 1.81107 11.0059 -0.000976562 13.1624 -0.000976562C14.2779 -0.000976562 15.2818 0.461674 16.0254 1.27131C16.8806 1.07854 17.7358 0.731554 18.4795 0.268903C18.182 1.23276 17.5871 2.00384 16.7691 2.50505C17.5499 2.42794 18.3307 2.19661 19 1.88818C18.4795 2.69782 17.8102 3.39179 17.0665 3.97011Z" fill="white"/>
</svg>
